<?xml version="1.0" encoding="utf-8" standalone="no"?>
<!DOCTYPE svg PUBLIC "-//W3C//DTD SVG 1.1//EN"
  "http://www.w3.org/Graphics/SVG/1.1/DTD/svg11.dtd">
<svg xmlns:xlink="http://www.w3.org/1999/xlink" width="747.568506pt" height="346.960025pt" viewBox="0 0 747.568506 346.960025" xmlns="http://www.w3.org/2000/svg" version="1.1">
 <metadata>
  <rdf:RDF xmlns:dc="http://purl.org/dc/elements/1.1/" xmlns:cc="http://creativecommons.org/ns#" xmlns:rdf="http://www.w3.org/1999/02/22-rdf-syntax-ns#">
   <cc:Work>
    <dc:type rdf:resource="http://purl.org/dc/dcmitype/StillImage"/>
    <dc:date>2026-03-30T09:48:25.892978</dc:date>
    <dc:format>image/svg+xml</dc:format>
    <dc:creator>
     <cc:Agent>
      <dc:title>Matplotlib v3.10.8, https://matplotlib.org/</dc:title>
     </cc:Agent>
    </dc:creator>
   </cc:Work>
  </rdf:RDF>
 </metadata>
 <defs>
  <style type="text/css">*{stroke-linejoin: round; stroke-linecap: butt}</style>
 </defs>
 <g id="figure_1">
  <g id="patch_1">
   <path d="M 0 346.960025 
L 747.568506 346.960025 
L 747.568506 0 
L 0 0 
z
" style="fill: #ffffff"/>
  </g>
  <g id="axes_1">
   <g id="patch_2">
    <path d="M 52.079375 307.46815 
L 740.368506 307.46815 
L 740.368506 24.735 
L 52.079375 24.735 
z
" style="fill: #ffffff"/>
   </g>
   <g id="patch_3">
    <path d="M 198.38552 307.46815 
L 594.062361 307.46815 
L 594.062361 24.735 
L 198.38552 24.735 
z
" clip-path="url(#p5f2176c299)" style="fill: #eafaf1; opacity: 0.14; stroke: #eafaf1; stroke-linejoin: miter"/>
   </g>
   <g id="matplotlib.axis_1">
    <g id="xtick_1">
     <g id="line2d_1">
      <path d="M 57.884296 307.46815 
L 57.884296 24.735 
" clip-path="url(#p5f2176c299)" style="fill: none; stroke: #b0b0b0; stroke-opacity: 0.17; stroke-width: 0.8; stroke-linecap: square"/>
     </g>
     <g id="line2d_2">
      <defs>
       <path id="m4a616228cd" d="M 0 0 
L 0 3.5 
" style="stroke: #000000; stroke-width: 0.8"/>
      </defs>
      <g>
       <use xlink:href="#m4a616228cd" x="57.884296" y="307.46815" style="stroke: #000000; stroke-width: 0.8"/>
      </g>
     </g>
     <g id="text_1">
      <!-- 8 -->
      <g transform="translate(54.703046 322.066588) scale(0.1 -0.1)">
       <defs>
        <path id="DejaVuSans-38" d="M 2034 2216 
Q 1584 2216 1326 1975 
Q 1069 1734 1069 1313 
Q 1069 891 1326 650 
Q 1584 409 2034 409 
Q 2484 409 2743 651 
Q 3003 894 3003 1313 
Q 3003 1734 2745 1975 
Q 2488 2216 2034 2216 
z
M 1403 2484 
Q 997 2584 770 2862 
Q 544 3141 544 3541 
Q 544 4100 942 4425 
Q 1341 4750 2034 4750 
Q 2731 4750 3128 4425 
Q 3525 4100 3525 3541 
Q 3525 3141 3298 2862 
Q 3072 2584 2669 2484 
Q 3125 2378 3379 2068 
Q 3634 1759 3634 1313 
Q 3634 634 3220 271 
Q 2806 -91 2034 -91 
Q 1263 -91 848 271 
Q 434 634 434 1313 
Q 434 1759 690 2068 
Q 947 2378 1403 2484 
z
M 1172 3481 
Q 1172 3119 1398 2916 
Q 1625 2713 2034 2713 
Q 2441 2713 2670 2916 
Q 2900 3119 2900 3481 
Q 2900 3844 2670 4047 
Q 2441 4250 2034 4250 
Q 1625 4250 1398 4047 
Q 1172 3844 1172 3481 
z
" transform="scale(0.015625)"/>
       </defs>
       <use xlink:href="#DejaVuSans-38"/>
      </g>
     </g>
    </g>
    <g id="xtick_2">
     <g id="line2d_3">
      <path d="M 139.165488 307.46815 
L 139.165488 24.735 
" clip-path="url(#p5f2176c299)" style="fill: none; stroke: #b0b0b0; stroke-opacity: 0.17; stroke-width: 0.8; stroke-linecap: square"/>
     </g>
     <g id="line2d_4">
      <g>
       <use xlink:href="#m4a616228cd" x="139.165488" y="307.46815" style="stroke: #000000; stroke-width: 0.8"/>
      </g>
     </g>
     <g id="text_2">
      <!-- 9 -->
      <g transform="translate(135.984238 322.066588) scale(0.1 -0.1)">
       <defs>
        <path id="DejaVuSans-39" d="M 703 97 
L 703 672 
Q 941 559 1184 500 
Q 1428 441 1663 441 
Q 2288 441 2617 861 
Q 2947 1281 2994 2138 
Q 2813 1869 2534 1725 
Q 2256 1581 1919 1581 
Q 1219 1581 811 2004 
Q 403 2428 403 3163 
Q 403 3881 828 4315 
Q 1253 4750 1959 4750 
Q 2769 4750 3195 4129 
Q 3622 3509 3622 2328 
Q 3622 1225 3098 567 
Q 2575 -91 1691 -91 
Q 1453 -91 1209 -44 
Q 966 3 703 97 
z
M 1959 2075 
Q 2384 2075 2632 2365 
Q 2881 2656 2881 3163 
Q 2881 3666 2632 3958 
Q 2384 4250 1959 4250 
Q 1534 4250 1286 3958 
Q 1038 3666 1038 3163 
Q 1038 2656 1286 2365 
Q 1534 2075 1959 2075 
z
" transform="scale(0.015625)"/>
       </defs>
       <use xlink:href="#DejaVuSans-39"/>
      </g>
     </g>
    </g>
    <g id="xtick_3">
     <g id="line2d_5">
      <path d="M 220.446679 307.46815 
L 220.446679 24.735 
" clip-path="url(#p5f2176c299)" style="fill: none; stroke: #b0b0b0; stroke-opacity: 0.17; stroke-width: 0.8; stroke-linecap: square"/>
     </g>
     <g id="line2d_6">
      <g>
       <use xlink:href="#m4a616228cd" x="220.446679" y="307.46815" style="stroke: #000000; stroke-width: 0.8"/>
      </g>
     </g>
     <g id="text_3">
      <!-- 10 -->
      <g transform="translate(214.084179 322.066588) scale(0.1 -0.1)">
       <defs>
        <path id="DejaVuSans-31" d="M 794 531 
L 1825 531 
L 1825 4091 
L 703 3866 
L 703 4441 
L 1819 4666 
L 2450 4666 
L 2450 531 
L 3481 531 
L 3481 0 
L 794 0 
L 794 531 
z
" transform="scale(0.015625)"/>
        <path id="DejaVuSans-30" d="M 2034 4250 
Q 1547 4250 1301 3770 
Q 1056 3291 1056 2328 
Q 1056 1369 1301 889 
Q 1547 409 2034 409 
Q 2525 409 2770 889 
Q 3016 1369 3016 2328 
Q 3016 3291 2770 3770 
Q 2525 4250 2034 4250 
z
M 2034 4750 
Q 2819 4750 3233 4129 
Q 3647 3509 3647 2328 
Q 3647 1150 3233 529 
Q 2819 -91 2034 -91 
Q 1250 -91 836 529 
Q 422 1150 422 2328 
Q 422 3509 836 4129 
Q 1250 4750 2034 4750 
z
" transform="scale(0.015625)"/>
       </defs>
       <use xlink:href="#DejaVuSans-31"/>
       <use xlink:href="#DejaVuSans-30" transform="translate(63.623047 0)"/>
      </g>
     </g>
    </g>
    <g id="xtick_4">
     <g id="line2d_7">
      <path d="M 301.727871 307.46815 
L 301.727871 24.735 
" clip-path="url(#p5f2176c299)" style="fill: none; stroke: #b0b0b0; stroke-opacity: 0.17; stroke-width: 0.8; stroke-linecap: square"/>
     </g>
     <g id="line2d_8">
      <g>
       <use xlink:href="#m4a616228cd" x="301.727871" y="307.46815" style="stroke: #000000; stroke-width: 0.8"/>
      </g>
     </g>
     <g id="text_4">
      <!-- 11 -->
      <g transform="translate(295.365371 322.066588) scale(0.1 -0.1)">
       <use xlink:href="#DejaVuSans-31"/>
       <use xlink:href="#DejaVuSans-31" transform="translate(63.623047 0)"/>
      </g>
     </g>
    </g>
    <g id="xtick_5">
     <g id="line2d_9">
      <path d="M 383.009063 307.46815 
L 383.009063 24.735 
" clip-path="url(#p5f2176c299)" style="fill: none; stroke: #b0b0b0; stroke-opacity: 0.17; stroke-width: 0.8; stroke-linecap: square"/>
     </g>
     <g id="line2d_10">
      <g>
       <use xlink:href="#m4a616228cd" x="383.009063" y="307.46815" style="stroke: #000000; stroke-width: 0.8"/>
      </g>
     </g>
     <g id="text_5">
      <!-- 12 -->
      <g transform="translate(376.646563 322.066588) scale(0.1 -0.1)">
       <defs>
        <path id="DejaVuSans-32" d="M 1228 531 
L 3431 531 
L 3431 0 
L 469 0 
L 469 531 
Q 828 903 1448 1529 
Q 2069 2156 2228 2338 
Q 2531 2678 2651 2914 
Q 2772 3150 2772 3378 
Q 2772 3750 2511 3984 
Q 2250 4219 1831 4219 
Q 1534 4219 1204 4116 
Q 875 4013 500 3803 
L 500 4441 
Q 881 4594 1212 4672 
Q 1544 4750 1819 4750 
Q 2544 4750 2975 4387 
Q 3406 4025 3406 3419 
Q 3406 3131 3298 2873 
Q 3191 2616 2906 2266 
Q 2828 2175 2409 1742 
Q 1991 1309 1228 531 
z
" transform="scale(0.015625)"/>
       </defs>
       <use xlink:href="#DejaVuSans-31"/>
       <use xlink:href="#DejaVuSans-32" transform="translate(63.623047 0)"/>
      </g>
     </g>
    </g>
    <g id="xtick_6">
     <g id="line2d_11">
      <path d="M 464.290255 307.46815 
L 464.290255 24.735 
" clip-path="url(#p5f2176c299)" style="fill: none; stroke: #b0b0b0; stroke-opacity: 0.17; stroke-width: 0.8; stroke-linecap: square"/>
     </g>
     <g id="line2d_12">
      <g>
       <use xlink:href="#m4a616228cd" x="464.290255" y="307.46815" style="stroke: #000000; stroke-width: 0.8"/>
      </g>
     </g>
     <g id="text_6">
      <!-- 13 -->
      <g transform="translate(457.927755 322.066588) scale(0.1 -0.1)">
       <defs>
        <path id="DejaVuSans-33" d="M 2597 2516 
Q 3050 2419 3304 2112 
Q 3559 1806 3559 1356 
Q 3559 666 3084 287 
Q 2609 -91 1734 -91 
Q 1441 -91 1130 -33 
Q 819 25 488 141 
L 488 750 
Q 750 597 1062 519 
Q 1375 441 1716 441 
Q 2309 441 2620 675 
Q 2931 909 2931 1356 
Q 2931 1769 2642 2001 
Q 2353 2234 1838 2234 
L 1294 2234 
L 1294 2753 
L 1863 2753 
Q 2328 2753 2575 2939 
Q 2822 3125 2822 3475 
Q 2822 3834 2567 4026 
Q 2313 4219 1838 4219 
Q 1578 4219 1281 4162 
Q 984 4106 628 3988 
L 628 4550 
Q 988 4650 1302 4700 
Q 1616 4750 1894 4750 
Q 2613 4750 3031 4423 
Q 3450 4097 3450 3541 
Q 3450 3153 3228 2886 
Q 3006 2619 2597 2516 
z
" transform="scale(0.015625)"/>
       </defs>
       <use xlink:href="#DejaVuSans-31"/>
       <use xlink:href="#DejaVuSans-33" transform="translate(63.623047 0)"/>
      </g>
     </g>
    </g>
    <g id="xtick_7">
     <g id="line2d_13">
      <path d="M 545.571446 307.46815 
L 545.571446 24.735 
" clip-path="url(#p5f2176c299)" style="fill: none; stroke: #b0b0b0; stroke-opacity: 0.17; stroke-width: 0.8; stroke-linecap: square"/>
     </g>
     <g id="line2d_14">
      <g>
       <use xlink:href="#m4a616228cd" x="545.571446" y="307.46815" style="stroke: #000000; stroke-width: 0.8"/>
      </g>
     </g>
     <g id="text_7">
      <!-- 14 -->
      <g transform="translate(539.208946 322.066588) scale(0.1 -0.1)">
       <defs>
        <path id="DejaVuSans-34" d="M 2419 4116 
L 825 1625 
L 2419 1625 
L 2419 4116 
z
M 2253 4666 
L 3047 4666 
L 3047 1625 
L 3713 1625 
L 3713 1100 
L 3047 1100 
L 3047 0 
L 2419 0 
L 2419 1100 
L 313 1100 
L 313 1709 
L 2253 4666 
z
" transform="scale(0.015625)"/>
       </defs>
       <use xlink:href="#DejaVuSans-31"/>
       <use xlink:href="#DejaVuSans-34" transform="translate(63.623047 0)"/>
      </g>
     </g>
    </g>
    <g id="xtick_8">
     <g id="line2d_15">
      <path d="M 626.852638 307.46815 
L 626.852638 24.735 
" clip-path="url(#p5f2176c299)" style="fill: none; stroke: #b0b0b0; stroke-opacity: 0.17; stroke-width: 0.8; stroke-linecap: square"/>
     </g>
     <g id="line2d_16">
      <g>
       <use xlink:href="#m4a616228cd" x="626.852638" y="307.46815" style="stroke: #000000; stroke-width: 0.8"/>
      </g>
     </g>
     <g id="text_8">
      <!-- 15 -->
      <g transform="translate(620.490138 322.066588) scale(0.1 -0.1)">
       <defs>
        <path id="DejaVuSans-35" d="M 691 4666 
L 3169 4666 
L 3169 4134 
L 1269 4134 
L 1269 2991 
Q 1406 3038 1543 3061 
Q 1681 3084 1819 3084 
Q 2600 3084 3056 2656 
Q 3513 2228 3513 1497 
Q 3513 744 3044 326 
Q 2575 -91 1722 -91 
Q 1428 -91 1123 -41 
Q 819 9 494 109 
L 494 744 
Q 775 591 1075 516 
Q 1375 441 1709 441 
Q 2250 441 2565 725 
Q 2881 1009 2881 1497 
Q 2881 1984 2565 2268 
Q 2250 2553 1709 2553 
Q 1456 2553 1204 2497 
Q 953 2441 691 2322 
L 691 4666 
z
" transform="scale(0.015625)"/>
       </defs>
       <use xlink:href="#DejaVuSans-31"/>
       <use xlink:href="#DejaVuSans-35" transform="translate(63.623047 0)"/>
      </g>
     </g>
    </g>
    <g id="xtick_9">
     <g id="line2d_17">
      <path d="M 708.13383 307.46815 
L 708.13383 24.735 
" clip-path="url(#p5f2176c299)" style="fill: none; stroke: #b0b0b0; stroke-opacity: 0.17; stroke-width: 0.8; stroke-linecap: square"/>
     </g>
     <g id="line2d_18">
      <g>
       <use xlink:href="#m4a616228cd" x="708.13383" y="307.46815" style="stroke: #000000; stroke-width: 0.8"/>
      </g>
     </g>
     <g id="text_9">
      <!-- 16 -->
      <g transform="translate(701.77133 322.066588) scale(0.1 -0.1)">
       <defs>
        <path id="DejaVuSans-36" d="M 2113 2584 
Q 1688 2584 1439 2293 
Q 1191 2003 1191 1497 
Q 1191 994 1439 701 
Q 1688 409 2113 409 
Q 2538 409 2786 701 
Q 3034 994 3034 1497 
Q 3034 2003 2786 2293 
Q 2538 2584 2113 2584 
z
M 3366 4563 
L 3366 3988 
Q 3128 4100 2886 4159 
Q 2644 4219 2406 4219 
Q 1781 4219 1451 3797 
Q 1122 3375 1075 2522 
Q 1259 2794 1537 2939 
Q 1816 3084 2150 3084 
Q 2853 3084 3261 2657 
Q 3669 2231 3669 1497 
Q 3669 778 3244 343 
Q 2819 -91 2113 -91 
Q 1303 -91 875 529 
Q 447 1150 447 2328 
Q 447 3434 972 4092 
Q 1497 4750 2381 4750 
Q 2619 4750 2861 4703 
Q 3103 4656 3366 4563 
z
" transform="scale(0.015625)"/>
       </defs>
       <use xlink:href="#DejaVuSans-31"/>
       <use xlink:href="#DejaVuSans-36" transform="translate(63.623047 0)"/>
      </g>
     </g>
    </g>
    <g id="text_10">
     <!-- Dimensionless time $\tau$ -->
     <g transform="translate(331.723941 337.2644) scale(0.12 -0.12)">
      <defs>
       <path id="DejaVuSans-44" d="M 1259 4147 
L 1259 519 
L 2022 519 
Q 2988 519 3436 956 
Q 3884 1394 3884 2338 
Q 3884 3275 3436 3711 
Q 2988 4147 2022 4147 
L 1259 4147 
z
M 628 4666 
L 1925 4666 
Q 3281 4666 3915 4102 
Q 4550 3538 4550 2338 
Q 4550 1131 3912 565 
Q 3275 0 1925 0 
L 628 0 
L 628 4666 
z
" transform="scale(0.015625)"/>
       <path id="DejaVuSans-69" d="M 603 3500 
L 1178 3500 
L 1178 0 
L 603 0 
L 603 3500 
z
M 603 4863 
L 1178 4863 
L 1178 4134 
L 603 4134 
L 603 4863 
z
" transform="scale(0.015625)"/>
       <path id="DejaVuSans-6d" d="M 3328 2828 
Q 3544 3216 3844 3400 
Q 4144 3584 4550 3584 
Q 5097 3584 5394 3201 
Q 5691 2819 5691 2113 
L 5691 0 
L 5113 0 
L 5113 2094 
Q 5113 2597 4934 2840 
Q 4756 3084 4391 3084 
Q 3944 3084 3684 2787 
Q 3425 2491 3425 1978 
L 3425 0 
L 2847 0 
L 2847 2094 
Q 2847 2600 2669 2842 
Q 2491 3084 2119 3084 
Q 1678 3084 1418 2786 
Q 1159 2488 1159 1978 
L 1159 0 
L 581 0 
L 581 3500 
L 1159 3500 
L 1159 2956 
Q 1356 3278 1631 3431 
Q 1906 3584 2284 3584 
Q 2666 3584 2933 3390 
Q 3200 3197 3328 2828 
z
" transform="scale(0.015625)"/>
       <path id="DejaVuSans-65" d="M 3597 1894 
L 3597 1613 
L 953 1613 
Q 991 1019 1311 708 
Q 1631 397 2203 397 
Q 2534 397 2845 478 
Q 3156 559 3463 722 
L 3463 178 
Q 3153 47 2828 -22 
Q 2503 -91 2169 -91 
Q 1331 -91 842 396 
Q 353 884 353 1716 
Q 353 2575 817 3079 
Q 1281 3584 2069 3584 
Q 2775 3584 3186 3129 
Q 3597 2675 3597 1894 
z
M 3022 2063 
Q 3016 2534 2758 2815 
Q 2500 3097 2075 3097 
Q 1594 3097 1305 2825 
Q 1016 2553 972 2059 
L 3022 2063 
z
" transform="scale(0.015625)"/>
       <path id="DejaVuSans-6e" d="M 3513 2113 
L 3513 0 
L 2938 0 
L 2938 2094 
Q 2938 2591 2744 2837 
Q 2550 3084 2163 3084 
Q 1697 3084 1428 2787 
Q 1159 2491 1159 1978 
L 1159 0 
L 581 0 
L 581 3500 
L 1159 3500 
L 1159 2956 
Q 1366 3272 1645 3428 
Q 1925 3584 2291 3584 
Q 2894 3584 3203 3211 
Q 3513 2838 3513 2113 
z
" transform="scale(0.015625)"/>
       <path id="DejaVuSans-73" d="M 2834 3397 
L 2834 2853 
Q 2591 2978 2328 3040 
Q 2066 3103 1784 3103 
Q 1356 3103 1142 2972 
Q 928 2841 928 2578 
Q 928 2378 1081 2264 
Q 1234 2150 1697 2047 
L 1894 2003 
Q 2506 1872 2764 1633 
Q 3022 1394 3022 966 
Q 3022 478 2636 193 
Q 2250 -91 1575 -91 
Q 1294 -91 989 -36 
Q 684 19 347 128 
L 347 722 
Q 666 556 975 473 
Q 1284 391 1588 391 
Q 1994 391 2212 530 
Q 2431 669 2431 922 
Q 2431 1156 2273 1281 
Q 2116 1406 1581 1522 
L 1381 1569 
Q 847 1681 609 1914 
Q 372 2147 372 2553 
Q 372 3047 722 3315 
Q 1072 3584 1716 3584 
Q 2034 3584 2315 3537 
Q 2597 3491 2834 3397 
z
" transform="scale(0.015625)"/>
       <path id="DejaVuSans-6f" d="M 1959 3097 
Q 1497 3097 1228 2736 
Q 959 2375 959 1747 
Q 959 1119 1226 758 
Q 1494 397 1959 397 
Q 2419 397 2687 759 
Q 2956 1122 2956 1747 
Q 2956 2369 2687 2733 
Q 2419 3097 1959 3097 
z
M 1959 3584 
Q 2709 3584 3137 3096 
Q 3566 2609 3566 1747 
Q 3566 888 3137 398 
Q 2709 -91 1959 -91 
Q 1206 -91 779 398 
Q 353 888 353 1747 
Q 353 2609 779 3096 
Q 1206 3584 1959 3584 
z
" transform="scale(0.015625)"/>
       <path id="DejaVuSans-6c" d="M 603 4863 
L 1178 4863 
L 1178 0 
L 603 0 
L 603 4863 
z
" transform="scale(0.015625)"/>
       <path id="DejaVuSans-20" transform="scale(0.015625)"/>
       <path id="DejaVuSans-74" d="M 1172 4494 
L 1172 3500 
L 2356 3500 
L 2356 3053 
L 1172 3053 
L 1172 1153 
Q 1172 725 1289 603 
Q 1406 481 1766 481 
L 2356 481 
L 2356 0 
L 1766 0 
Q 1100 0 847 248 
Q 594 497 594 1153 
L 594 3053 
L 172 3053 
L 172 3500 
L 594 3500 
L 594 4494 
L 1172 4494 
z
" transform="scale(0.015625)"/>
       <path id="DejaVuSans-Oblique-3c4" d="M 2103 638 
Q 2188 488 2525 488 
L 2800 488 
L 2706 0 
L 2363 0 
Q 1800 0 1600 300 
Q 1403 606 1534 1269 
L 1856 2925 
L 541 2925 
L 653 3500 
L 3881 3500 
L 3769 2925 
L 2444 2925 
L 2113 1234 
Q 2025 781 2103 638 
z
" transform="scale(0.015625)"/>
      </defs>
      <use xlink:href="#DejaVuSans-44" transform="translate(0 0.015625)"/>
      <use xlink:href="#DejaVuSans-69" transform="translate(77.001953 0.015625)"/>
      <use xlink:href="#DejaVuSans-6d" transform="translate(104.785156 0.015625)"/>
      <use xlink:href="#DejaVuSans-65" transform="translate(202.197266 0.015625)"/>
      <use xlink:href="#DejaVuSans-6e" transform="translate(263.720703 0.015625)"/>
      <use xlink:href="#DejaVuSans-73" transform="translate(327.099609 0.015625)"/>
      <use xlink:href="#DejaVuSans-69" transform="translate(379.199219 0.015625)"/>
      <use xlink:href="#DejaVuSans-6f" transform="translate(406.982422 0.015625)"/>
      <use xlink:href="#DejaVuSans-6e" transform="translate(468.164062 0.015625)"/>
      <use xlink:href="#DejaVuSans-6c" transform="translate(531.542969 0.015625)"/>
      <use xlink:href="#DejaVuSans-65" transform="translate(559.326172 0.015625)"/>
      <use xlink:href="#DejaVuSans-73" transform="translate(620.849609 0.015625)"/>
      <use xlink:href="#DejaVuSans-73" transform="translate(672.949219 0.015625)"/>
      <use xlink:href="#DejaVuSans-20" transform="translate(725.048828 0.015625)"/>
      <use xlink:href="#DejaVuSans-74" transform="translate(756.835938 0.015625)"/>
      <use xlink:href="#DejaVuSans-69" transform="translate(796.044922 0.015625)"/>
      <use xlink:href="#DejaVuSans-6d" transform="translate(823.828125 0.015625)"/>
      <use xlink:href="#DejaVuSans-65" transform="translate(921.240234 0.015625)"/>
      <use xlink:href="#DejaVuSans-20" transform="translate(982.763672 0.015625)"/>
      <use xlink:href="#DejaVuSans-Oblique-3c4" transform="translate(1014.550781 0.015625)"/>
     </g>
    </g>
   </g>
   <g id="matplotlib.axis_2">
    <g id="ytick_1">
     <g id="line2d_19">
      <path d="M 52.079375 298.431017 
L 740.368506 298.431017 
" clip-path="url(#p5f2176c299)" style="fill: none; stroke: #b0b0b0; stroke-opacity: 0.17; stroke-width: 0.8; stroke-linecap: square"/>
     </g>
     <g id="line2d_20">
      <defs>
       <path id="mc7f0d9a8a3" d="M 0 0 
L -3.5 0 
" style="stroke: #000000; stroke-width: 0.8"/>
      </defs>
      <g>
       <use xlink:href="#mc7f0d9a8a3" x="52.079375" y="298.431017" style="stroke: #000000; stroke-width: 0.8"/>
      </g>
     </g>
     <g id="text_11">
      <!-- 0.00 -->
      <g transform="translate(22.81375 302.230236) scale(0.1 -0.1)">
       <defs>
        <path id="DejaVuSans-2e" d="M 684 794 
L 1344 794 
L 1344 0 
L 684 0 
L 684 794 
z
" transform="scale(0.015625)"/>
       </defs>
       <use xlink:href="#DejaVuSans-30"/>
       <use xlink:href="#DejaVuSans-2e" transform="translate(63.623047 0)"/>
       <use xlink:href="#DejaVuSans-30" transform="translate(95.410156 0)"/>
       <use xlink:href="#DejaVuSans-30" transform="translate(159.033203 0)"/>
      </g>
     </g>
    </g>
    <g id="ytick_2">
     <g id="line2d_21">
      <path d="M 52.079375 266.155544 
L 740.368506 266.155544 
" clip-path="url(#p5f2176c299)" style="fill: none; stroke: #b0b0b0; stroke-opacity: 0.17; stroke-width: 0.8; stroke-linecap: square"/>
     </g>
     <g id="line2d_22">
      <g>
       <use xlink:href="#mc7f0d9a8a3" x="52.079375" y="266.155544" style="stroke: #000000; stroke-width: 0.8"/>
      </g>
     </g>
     <g id="text_12">
      <!-- 0.25 -->
      <g transform="translate(22.81375 269.954762) scale(0.1 -0.1)">
       <use xlink:href="#DejaVuSans-30"/>
       <use xlink:href="#DejaVuSans-2e" transform="translate(63.623047 0)"/>
       <use xlink:href="#DejaVuSans-32" transform="translate(95.410156 0)"/>
       <use xlink:href="#DejaVuSans-35" transform="translate(159.033203 0)"/>
      </g>
     </g>
    </g>
    <g id="ytick_3">
     <g id="line2d_23">
      <path d="M 52.079375 233.88007 
L 740.368506 233.88007 
" clip-path="url(#p5f2176c299)" style="fill: none; stroke: #b0b0b0; stroke-opacity: 0.17; stroke-width: 0.8; stroke-linecap: square"/>
     </g>
     <g id="line2d_24">
      <g>
       <use xlink:href="#mc7f0d9a8a3" x="52.079375" y="233.88007" style="stroke: #000000; stroke-width: 0.8"/>
      </g>
     </g>
     <g id="text_13">
      <!-- 0.50 -->
      <g transform="translate(22.81375 237.679289) scale(0.1 -0.1)">
       <use xlink:href="#DejaVuSans-30"/>
       <use xlink:href="#DejaVuSans-2e" transform="translate(63.623047 0)"/>
       <use xlink:href="#DejaVuSans-35" transform="translate(95.410156 0)"/>
       <use xlink:href="#DejaVuSans-30" transform="translate(159.033203 0)"/>
      </g>
     </g>
    </g>
    <g id="ytick_4">
     <g id="line2d_25">
      <path d="M 52.079375 201.604596 
L 740.368506 201.604596 
" clip-path="url(#p5f2176c299)" style="fill: none; stroke: #b0b0b0; stroke-opacity: 0.17; stroke-width: 0.8; stroke-linecap: square"/>
     </g>
     <g id="line2d_26">
      <g>
       <use xlink:href="#mc7f0d9a8a3" x="52.079375" y="201.604596" style="stroke: #000000; stroke-width: 0.8"/>
      </g>
     </g>
     <g id="text_14">
      <!-- 0.75 -->
      <g transform="translate(22.81375 205.403815) scale(0.1 -0.1)">
       <defs>
        <path id="DejaVuSans-37" d="M 525 4666 
L 3525 4666 
L 3525 4397 
L 1831 0 
L 1172 0 
L 2766 4134 
L 525 4134 
L 525 4666 
z
" transform="scale(0.015625)"/>
       </defs>
       <use xlink:href="#DejaVuSans-30"/>
       <use xlink:href="#DejaVuSans-2e" transform="translate(63.623047 0)"/>
       <use xlink:href="#DejaVuSans-37" transform="translate(95.410156 0)"/>
       <use xlink:href="#DejaVuSans-35" transform="translate(159.033203 0)"/>
      </g>
     </g>
    </g>
    <g id="ytick_5">
     <g id="line2d_27">
      <path d="M 52.079375 169.329122 
L 740.368506 169.329122 
" clip-path="url(#p5f2176c299)" style="fill: none; stroke: #b0b0b0; stroke-opacity: 0.17; stroke-width: 0.8; stroke-linecap: square"/>
     </g>
     <g id="line2d_28">
      <g>
       <use xlink:href="#mc7f0d9a8a3" x="52.079375" y="169.329122" style="stroke: #000000; stroke-width: 0.8"/>
      </g>
     </g>
     <g id="text_15">
      <!-- 1.00 -->
      <g transform="translate(22.81375 173.128341) scale(0.1 -0.1)">
       <use xlink:href="#DejaVuSans-31"/>
       <use xlink:href="#DejaVuSans-2e" transform="translate(63.623047 0)"/>
       <use xlink:href="#DejaVuSans-30" transform="translate(95.410156 0)"/>
       <use xlink:href="#DejaVuSans-30" transform="translate(159.033203 0)"/>
      </g>
     </g>
    </g>
    <g id="ytick_6">
     <g id="line2d_29">
      <path d="M 52.079375 137.053649 
L 740.368506 137.053649 
" clip-path="url(#p5f2176c299)" style="fill: none; stroke: #b0b0b0; stroke-opacity: 0.17; stroke-width: 0.8; stroke-linecap: square"/>
     </g>
     <g id="line2d_30">
      <g>
       <use xlink:href="#mc7f0d9a8a3" x="52.079375" y="137.053649" style="stroke: #000000; stroke-width: 0.8"/>
      </g>
     </g>
     <g id="text_16">
      <!-- 1.25 -->
      <g transform="translate(22.81375 140.852867) scale(0.1 -0.1)">
       <use xlink:href="#DejaVuSans-31"/>
       <use xlink:href="#DejaVuSans-2e" transform="translate(63.623047 0)"/>
       <use xlink:href="#DejaVuSans-32" transform="translate(95.410156 0)"/>
       <use xlink:href="#DejaVuSans-35" transform="translate(159.033203 0)"/>
      </g>
     </g>
    </g>
    <g id="ytick_7">
     <g id="line2d_31">
      <path d="M 52.079375 104.778175 
L 740.368506 104.778175 
" clip-path="url(#p5f2176c299)" style="fill: none; stroke: #b0b0b0; stroke-opacity: 0.17; stroke-width: 0.8; stroke-linecap: square"/>
     </g>
     <g id="line2d_32">
      <g>
       <use xlink:href="#mc7f0d9a8a3" x="52.079375" y="104.778175" style="stroke: #000000; stroke-width: 0.8"/>
      </g>
     </g>
     <g id="text_17">
      <!-- 1.50 -->
      <g transform="translate(22.81375 108.577394) scale(0.1 -0.1)">
       <use xlink:href="#DejaVuSans-31"/>
       <use xlink:href="#DejaVuSans-2e" transform="translate(63.623047 0)"/>
       <use xlink:href="#DejaVuSans-35" transform="translate(95.410156 0)"/>
       <use xlink:href="#DejaVuSans-30" transform="translate(159.033203 0)"/>
      </g>
     </g>
    </g>
    <g id="ytick_8">
     <g id="line2d_33">
      <path d="M 52.079375 72.502701 
L 740.368506 72.502701 
" clip-path="url(#p5f2176c299)" style="fill: none; stroke: #b0b0b0; stroke-opacity: 0.17; stroke-width: 0.8; stroke-linecap: square"/>
     </g>
     <g id="line2d_34">
      <g>
       <use xlink:href="#mc7f0d9a8a3" x="52.079375" y="72.502701" style="stroke: #000000; stroke-width: 0.8"/>
      </g>
     </g>
     <g id="text_18">
      <!-- 1.75 -->
      <g transform="translate(22.81375 76.30192) scale(0.1 -0.1)">
       <use xlink:href="#DejaVuSans-31"/>
       <use xlink:href="#DejaVuSans-2e" transform="translate(63.623047 0)"/>
       <use xlink:href="#DejaVuSans-37" transform="translate(95.410156 0)"/>
       <use xlink:href="#DejaVuSans-35" transform="translate(159.033203 0)"/>
      </g>
     </g>
    </g>
    <g id="ytick_9">
     <g id="line2d_35">
      <path d="M 52.079375 40.227227 
L 740.368506 40.227227 
" clip-path="url(#p5f2176c299)" style="fill: none; stroke: #b0b0b0; stroke-opacity: 0.17; stroke-width: 0.8; stroke-linecap: square"/>
     </g>
     <g id="line2d_36">
      <g>
       <use xlink:href="#mc7f0d9a8a3" x="52.079375" y="40.227227" style="stroke: #000000; stroke-width: 0.8"/>
      </g>
     </g>
     <g id="text_19">
      <!-- 2.00 -->
      <g transform="translate(22.81375 44.026446) scale(0.1 -0.1)">
       <use xlink:href="#DejaVuSans-32"/>
       <use xlink:href="#DejaVuSans-2e" transform="translate(63.623047 0)"/>
       <use xlink:href="#DejaVuSans-30" transform="translate(95.410156 0)"/>
       <use xlink:href="#DejaVuSans-30" transform="translate(159.033203 0)"/>
      </g>
     </g>
    </g>
    <g id="text_20">
     <!-- $x=a/a_*$ -->
     <g transform="translate(16.318125 190.341575) rotate(-90) scale(0.12 -0.12)">
      <defs>
       <path id="DejaVuSans-Oblique-78" d="M 3841 3500 
L 2234 1784 
L 3219 0 
L 2559 0 
L 1819 1388 
L 531 0 
L -166 0 
L 1556 1844 
L 641 3500 
L 1300 3500 
L 1972 2234 
L 3144 3500 
L 3841 3500 
z
" transform="scale(0.015625)"/>
       <path id="DejaVuSans-3d" d="M 678 2906 
L 4684 2906 
L 4684 2381 
L 678 2381 
L 678 2906 
z
M 678 1631 
L 4684 1631 
L 4684 1100 
L 678 1100 
L 678 1631 
z
" transform="scale(0.015625)"/>
       <path id="DejaVuSans-Oblique-61" d="M 3438 1997 
L 3047 0 
L 2472 0 
L 2578 531 
Q 2325 219 2001 64 
Q 1678 -91 1281 -91 
Q 834 -91 548 182 
Q 263 456 263 884 
Q 263 1497 752 1853 
Q 1241 2209 2100 2209 
L 2900 2209 
L 2931 2363 
Q 2938 2388 2941 2417 
Q 2944 2447 2944 2509 
Q 2944 2788 2717 2942 
Q 2491 3097 2081 3097 
Q 1800 3097 1504 3025 
Q 1209 2953 897 2809 
L 997 3341 
Q 1322 3463 1633 3523 
Q 1944 3584 2234 3584 
Q 2853 3584 3176 3315 
Q 3500 3047 3500 2534 
Q 3500 2431 3484 2292 
Q 3469 2153 3438 1997 
z
M 2816 1759 
L 2241 1759 
Q 1534 1759 1195 1570 
Q 856 1381 856 984 
Q 856 709 1029 553 
Q 1203 397 1509 397 
Q 1978 397 2328 733 
Q 2678 1069 2791 1631 
L 2816 1759 
z
" transform="scale(0.015625)"/>
       <path id="DejaVuSans-2f" d="M 1625 4666 
L 2156 4666 
L 531 -594 
L 0 -594 
L 1625 4666 
z
" transform="scale(0.015625)"/>
       <path id="DejaVuSans-2a" d="M 3009 3897 
L 1888 3291 
L 3009 2681 
L 2828 2375 
L 1778 3009 
L 1778 1831 
L 1422 1831 
L 1422 3009 
L 372 2375 
L 191 2681 
L 1313 3291 
L 191 3897 
L 372 4206 
L 1422 3572 
L 1422 4750 
L 1778 4750 
L 1778 3572 
L 2828 4206 
L 3009 3897 
z
" transform="scale(0.015625)"/>
      </defs>
      <use xlink:href="#DejaVuSans-Oblique-78" transform="translate(0 0.09375)"/>
      <use xlink:href="#DejaVuSans-3d" transform="translate(78.662109 0.09375)"/>
      <use xlink:href="#DejaVuSans-Oblique-61" transform="translate(181.933594 0.09375)"/>
      <use xlink:href="#DejaVuSans-2f" transform="translate(243.212891 0.09375)"/>
      <use xlink:href="#DejaVuSans-Oblique-61" transform="translate(276.904297 0.09375)"/>
      <use xlink:href="#DejaVuSans-2a" transform="translate(351.821289 -16.3125) scale(0.7)"/>
     </g>
    </g>
   </g>
   <g id="line2d_37">
    <path d="M 52.079375 169.329122 
L 740.368506 169.329122 
" clip-path="url(#p5f2176c299)" style="fill: none; stroke-dasharray: 3.145,1.36; stroke-dashoffset: 0; stroke: #777777; stroke-opacity: 0.6; stroke-width: 0.85"/>
   </g>
   <g id="patch_4">
    <path d="M 52.079375 307.46815 
L 52.079375 24.735 
" style="fill: none; stroke: #000000; stroke-width: 0.8; stroke-linejoin: miter; stroke-linecap: square"/>
   </g>
   <g id="patch_5">
    <path d="M 52.079375 307.46815 
L 740.368506 307.46815 
" style="fill: none; stroke: #000000; stroke-width: 0.8; stroke-linejoin: miter; stroke-linecap: square"/>
   </g>
   <g id="line2d_38">
    <path d="M 52.079375 93.710123 
L 56.956247 97.272653 
L 61.833118 101.115663 
L 67.035114 105.511313 
L 72.237111 110.198264 
L 77.764232 115.478945 
L 83.616477 121.38451 
L 89.793848 127.938324 
L 96.621468 135.521393 
L 104.099338 144.172742 
L 112.877706 154.683984 
L 126.207822 171.050366 
L 139.863062 187.716303 
L 147.340932 196.491697 
L 153.193177 203.040545 
L 158.395174 208.540545 
L 162.94692 213.042876 
L 167.173542 216.914131 
L 171.07504 220.182023 
L 174.651412 222.887039 
L 177.90266 225.079948 
L 181.153907 226.99753 
L 184.08003 228.471465 
L 187.006153 229.693013 
L 189.607151 230.557562 
L 192.20815 231.206786 
L 194.809148 231.635463 
L 197.410146 231.840067 
L 200.011144 231.818897 
L 202.612142 231.572136 
L 205.21314 231.101843 
L 207.814138 230.411883 
L 210.415136 229.507788 
L 213.341259 228.243507 
L 216.267382 226.729003 
L 219.193505 224.977749 
L 222.444753 222.772067 
L 226.021125 220.054359 
L 229.597498 217.0593 
L 233.498995 213.509508 
L 237.725617 209.372492 
L 242.602488 204.278865 
L 248.129609 198.168139 
L 254.632105 190.629177 
L 263.085349 180.453292 
L 294.947576 141.722469 
L 302.425445 133.169427 
L 309.253066 125.694839 
L 315.430436 119.253066 
L 321.282682 113.464718 
L 326.809803 108.303786 
L 332.011799 103.736892 
L 337.213796 99.467827 
L 342.090667 95.748909 
L 346.967539 92.315243 
L 351.519285 89.376503 
L 356.071032 86.701976 
L 360.622779 84.298116 
L 364.849401 82.313342 
L 369.076023 80.570942 
L 373.302645 79.074433 
L 377.529267 77.826816 
L 381.430764 76.898235 
L 385.332261 76.185416 
L 389.233758 75.689553 
L 393.135255 75.411474 
L 397.036753 75.351635 
L 400.93825 75.510125 
L 404.839747 75.886668 
L 408.741244 76.480615 
L 412.642741 77.290952 
L 416.544239 78.316295 
L 420.770861 79.667667 
L 424.997483 81.266584 
L 429.224105 83.109809 
L 433.450727 85.193585 
L 437.677348 87.513636 
L 442.229095 90.270861 
L 446.780842 93.289827 
L 451.657713 96.806426 
L 456.534585 100.604857 
L 461.736581 104.954626 
L 466.938578 109.597615 
L 472.465699 114.833926 
L 478.317944 120.695428 
L 484.495315 127.206356 
L 490.99781 134.380341 
L 498.47568 142.977146 
L 506.928924 153.046094 
L 518.95854 167.764076 
L 535.214779 187.621508 
L 542.692648 196.391566 
L 548.544894 202.937792 
L 553.74689 208.436857 
L 558.298637 212.939632 
L 562.525259 216.812504 
L 566.426756 220.083032 
L 570.003129 222.791514 
L 573.254376 224.988499 
L 576.505624 226.911071 
L 579.431747 228.390293 
L 582.35787 229.617876 
L 584.958868 230.488404 
L 587.559866 231.144155 
L 590.160864 231.579869 
L 592.761862 231.791973 
L 595.36286 231.778706 
L 597.963859 231.540184 
L 600.564857 231.078396 
L 603.165855 230.397131 
L 605.766853 229.501848 
L 608.692976 228.247531 
L 611.619099 226.742956 
L 614.545222 225.001509 
L 617.796469 222.806498 
L 621.372842 220.100159 
L 624.949214 217.116006 
L 628.850711 213.577519 
L 633.077333 209.452003 
L 637.954205 204.370647 
L 643.481326 198.272533 
L 649.983821 190.746698 
L 658.11194 180.981422 
L 690.949542 141.129455 
L 698.427412 132.609887 
L 705.255032 125.170136 
L 711.432402 118.762979 
L 717.284648 113.009834 
L 722.811769 107.884069 
L 728.013765 103.351796 
L 733.215762 99.118665 
L 738.092633 95.434496 
L 740.368506 93.812534 
L 740.368506 93.812534 
" clip-path="url(#p5f2176c299)" style="fill: none; stroke: #1a5fa8; stroke-width: 2.1; stroke-linecap: square"/>
   </g>
   <g id="patch_6">
    <path d="M 160.932579 214.518156 
Q 178.752672 222.76874 195.558198 230.549586 
" style="fill: none; stroke: #1d8a3b; stroke-linecap: round"/>
    <path d="M 193.187095 227.578413 
L 195.558198 230.549586 
L 191.758597 230.663765 
" style="fill: none; stroke: #1d8a3b; stroke-linecap: round"/>
   </g>
   <g id="text_21">
    <!-- 2nd bounce -->
    <g style="fill: #1d8a3b" transform="translate(115.705778 200.393155) scale(0.085 -0.085)">
     <defs>
      <path id="DejaVuSans-64" d="M 2906 2969 
L 2906 4863 
L 3481 4863 
L 3481 0 
L 2906 0 
L 2906 525 
Q 2725 213 2448 61 
Q 2172 -91 1784 -91 
Q 1150 -91 751 415 
Q 353 922 353 1747 
Q 353 2572 751 3078 
Q 1150 3584 1784 3584 
Q 2172 3584 2448 3432 
Q 2725 3281 2906 2969 
z
M 947 1747 
Q 947 1113 1208 752 
Q 1469 391 1925 391 
Q 2381 391 2643 752 
Q 2906 1113 2906 1747 
Q 2906 2381 2643 2742 
Q 2381 3103 1925 3103 
Q 1469 3103 1208 2742 
Q 947 2381 947 1747 
z
" transform="scale(0.015625)"/>
      <path id="DejaVuSans-62" d="M 3116 1747 
Q 3116 2381 2855 2742 
Q 2594 3103 2138 3103 
Q 1681 3103 1420 2742 
Q 1159 2381 1159 1747 
Q 1159 1113 1420 752 
Q 1681 391 2138 391 
Q 2594 391 2855 752 
Q 3116 1113 3116 1747 
z
M 1159 2969 
Q 1341 3281 1617 3432 
Q 1894 3584 2278 3584 
Q 2916 3584 3314 3078 
Q 3713 2572 3713 1747 
Q 3713 922 3314 415 
Q 2916 -91 2278 -91 
Q 1894 -91 1617 61 
Q 1341 213 1159 525 
L 1159 0 
L 581 0 
L 581 4863 
L 1159 4863 
L 1159 2969 
z
" transform="scale(0.015625)"/>
      <path id="DejaVuSans-75" d="M 544 1381 
L 544 3500 
L 1119 3500 
L 1119 1403 
Q 1119 906 1312 657 
Q 1506 409 1894 409 
Q 2359 409 2629 706 
Q 2900 1003 2900 1516 
L 2900 3500 
L 3475 3500 
L 3475 0 
L 2900 0 
L 2900 538 
Q 2691 219 2414 64 
Q 2138 -91 1772 -91 
Q 1169 -91 856 284 
Q 544 659 544 1381 
z
M 1991 3584 
L 1991 3584 
z
" transform="scale(0.015625)"/>
      <path id="DejaVuSans-63" d="M 3122 3366 
L 3122 2828 
Q 2878 2963 2633 3030 
Q 2388 3097 2138 3097 
Q 1578 3097 1268 2742 
Q 959 2388 959 1747 
Q 959 1106 1268 751 
Q 1578 397 2138 397 
Q 2388 397 2633 464 
Q 2878 531 3122 666 
L 3122 134 
Q 2881 22 2623 -34 
Q 2366 -91 2075 -91 
Q 1284 -91 818 406 
Q 353 903 353 1747 
Q 353 2603 823 3093 
Q 1294 3584 2113 3584 
Q 2378 3584 2631 3529 
Q 2884 3475 3122 3366 
z
" transform="scale(0.015625)"/>
     </defs>
     <use xlink:href="#DejaVuSans-32"/>
     <use xlink:href="#DejaVuSans-6e" transform="translate(63.623047 0)"/>
     <use xlink:href="#DejaVuSans-64" transform="translate(127.001953 0)"/>
     <use xlink:href="#DejaVuSans-20" transform="translate(190.478516 0)"/>
     <use xlink:href="#DejaVuSans-62" transform="translate(222.265625 0)"/>
     <use xlink:href="#DejaVuSans-6f" transform="translate(285.742188 0)"/>
     <use xlink:href="#DejaVuSans-75" transform="translate(346.923828 0)"/>
     <use xlink:href="#DejaVuSans-6e" transform="translate(410.302734 0)"/>
     <use xlink:href="#DejaVuSans-63" transform="translate(473.681641 0)"/>
     <use xlink:href="#DejaVuSans-65" transform="translate(528.662109 0)"/>
    </g>
    <!-- (Cycle 3 start) -->
    <g style="fill: #1d8a3b" transform="translate(105.402184 209.911295) scale(0.085 -0.085)">
     <defs>
      <path id="DejaVuSans-28" d="M 1984 4856 
Q 1566 4138 1362 3434 
Q 1159 2731 1159 2009 
Q 1159 1288 1364 580 
Q 1569 -128 1984 -844 
L 1484 -844 
Q 1016 -109 783 600 
Q 550 1309 550 2009 
Q 550 2706 781 3412 
Q 1013 4119 1484 4856 
L 1984 4856 
z
" transform="scale(0.015625)"/>
      <path id="DejaVuSans-43" d="M 4122 4306 
L 4122 3641 
Q 3803 3938 3442 4084 
Q 3081 4231 2675 4231 
Q 1875 4231 1450 3742 
Q 1025 3253 1025 2328 
Q 1025 1406 1450 917 
Q 1875 428 2675 428 
Q 3081 428 3442 575 
Q 3803 722 4122 1019 
L 4122 359 
Q 3791 134 3420 21 
Q 3050 -91 2638 -91 
Q 1578 -91 968 557 
Q 359 1206 359 2328 
Q 359 3453 968 4101 
Q 1578 4750 2638 4750 
Q 3056 4750 3426 4639 
Q 3797 4528 4122 4306 
z
" transform="scale(0.015625)"/>
      <path id="DejaVuSans-79" d="M 2059 -325 
Q 1816 -950 1584 -1140 
Q 1353 -1331 966 -1331 
L 506 -1331 
L 506 -850 
L 844 -850 
Q 1081 -850 1212 -737 
Q 1344 -625 1503 -206 
L 1606 56 
L 191 3500 
L 800 3500 
L 1894 763 
L 2988 3500 
L 3597 3500 
L 2059 -325 
z
" transform="scale(0.015625)"/>
      <path id="DejaVuSans-61" d="M 2194 1759 
Q 1497 1759 1228 1600 
Q 959 1441 959 1056 
Q 959 750 1161 570 
Q 1363 391 1709 391 
Q 2188 391 2477 730 
Q 2766 1069 2766 1631 
L 2766 1759 
L 2194 1759 
z
M 3341 1997 
L 3341 0 
L 2766 0 
L 2766 531 
Q 2569 213 2275 61 
Q 1981 -91 1556 -91 
Q 1019 -91 701 211 
Q 384 513 384 1019 
Q 384 1609 779 1909 
Q 1175 2209 1959 2209 
L 2766 2209 
L 2766 2266 
Q 2766 2663 2505 2880 
Q 2244 3097 1772 3097 
Q 1472 3097 1187 3025 
Q 903 2953 641 2809 
L 641 3341 
Q 956 3463 1253 3523 
Q 1550 3584 1831 3584 
Q 2591 3584 2966 3190 
Q 3341 2797 3341 1997 
z
" transform="scale(0.015625)"/>
      <path id="DejaVuSans-72" d="M 2631 2963 
Q 2534 3019 2420 3045 
Q 2306 3072 2169 3072 
Q 1681 3072 1420 2755 
Q 1159 2438 1159 1844 
L 1159 0 
L 581 0 
L 581 3500 
L 1159 3500 
L 1159 2956 
Q 1341 3275 1631 3429 
Q 1922 3584 2338 3584 
Q 2397 3584 2469 3576 
Q 2541 3569 2628 3553 
L 2631 2963 
z
" transform="scale(0.015625)"/>
      <path id="DejaVuSans-29" d="M 513 4856 
L 1013 4856 
Q 1481 4119 1714 3412 
Q 1947 2706 1947 2009 
Q 1947 1309 1714 600 
Q 1481 -109 1013 -844 
L 513 -844 
Q 928 -128 1133 580 
Q 1338 1288 1338 2009 
Q 1338 2731 1133 3434 
Q 928 4138 513 4856 
z
" transform="scale(0.015625)"/>
     </defs>
     <use xlink:href="#DejaVuSans-28"/>
     <use xlink:href="#DejaVuSans-43" transform="translate(39.013672 0)"/>
     <use xlink:href="#DejaVuSans-79" transform="translate(108.837891 0)"/>
     <use xlink:href="#DejaVuSans-63" transform="translate(168.017578 0)"/>
     <use xlink:href="#DejaVuSans-6c" transform="translate(222.998047 0)"/>
     <use xlink:href="#DejaVuSans-65" transform="translate(250.78125 0)"/>
     <use xlink:href="#DejaVuSans-20" transform="translate(312.304688 0)"/>
     <use xlink:href="#DejaVuSans-33" transform="translate(344.091797 0)"/>
     <use xlink:href="#DejaVuSans-20" transform="translate(407.714844 0)"/>
     <use xlink:href="#DejaVuSans-73" transform="translate(439.501953 0)"/>
     <use xlink:href="#DejaVuSans-74" transform="translate(491.601562 0)"/>
     <use xlink:href="#DejaVuSans-61" transform="translate(530.810547 0)"/>
     <use xlink:href="#DejaVuSans-72" transform="translate(592.089844 0)"/>
     <use xlink:href="#DejaVuSans-74" transform="translate(633.203125 0)"/>
     <use xlink:href="#DejaVuSans-29" transform="translate(672.412109 0)"/>
    </g>
   </g>
   <g id="patch_7">
    <path d="M 631.515303 214.473087 
Q 613.69521 222.723671 596.889684 230.504517 
" style="fill: none; stroke: #1d8a3b; stroke-linecap: round"/>
    <path d="M 600.689284 230.618695 
L 596.889684 230.504517 
L 599.260787 227.533344 
" style="fill: none; stroke: #1d8a3b; stroke-linecap: round"/>
   </g>
   <g id="text_22">
    <!-- 3rd bounce -->
    <g style="fill: #1d8a3b" transform="translate(626.574838 200.348085) scale(0.085 -0.085)">
     <use xlink:href="#DejaVuSans-33"/>
     <use xlink:href="#DejaVuSans-72" transform="translate(63.623047 0)"/>
     <use xlink:href="#DejaVuSans-64" transform="translate(102.986328 0)"/>
     <use xlink:href="#DejaVuSans-20" transform="translate(166.462891 0)"/>
     <use xlink:href="#DejaVuSans-62" transform="translate(198.25 0)"/>
     <use xlink:href="#DejaVuSans-6f" transform="translate(261.726562 0)"/>
     <use xlink:href="#DejaVuSans-75" transform="translate(322.908203 0)"/>
     <use xlink:href="#DejaVuSans-6e" transform="translate(386.287109 0)"/>
     <use xlink:href="#DejaVuSans-63" transform="translate(449.666016 0)"/>
     <use xlink:href="#DejaVuSans-65" transform="translate(504.646484 0)"/>
    </g>
    <!-- (Cycle 4 start) -->
    <g style="fill: #1d8a3b" transform="translate(626.574838 209.866226) scale(0.085 -0.085)">
     <use xlink:href="#DejaVuSans-28"/>
     <use xlink:href="#DejaVuSans-43" transform="translate(39.013672 0)"/>
     <use xlink:href="#DejaVuSans-79" transform="translate(108.837891 0)"/>
     <use xlink:href="#DejaVuSans-63" transform="translate(168.017578 0)"/>
     <use xlink:href="#DejaVuSans-6c" transform="translate(222.998047 0)"/>
     <use xlink:href="#DejaVuSans-65" transform="translate(250.78125 0)"/>
     <use xlink:href="#DejaVuSans-20" transform="translate(312.304688 0)"/>
     <use xlink:href="#DejaVuSans-34" transform="translate(344.091797 0)"/>
     <use xlink:href="#DejaVuSans-20" transform="translate(407.714844 0)"/>
     <use xlink:href="#DejaVuSans-73" transform="translate(439.501953 0)"/>
     <use xlink:href="#DejaVuSans-74" transform="translate(491.601562 0)"/>
     <use xlink:href="#DejaVuSans-61" transform="translate(530.810547 0)"/>
     <use xlink:href="#DejaVuSans-72" transform="translate(592.089844 0)"/>
     <use xlink:href="#DejaVuSans-74" transform="translate(633.203125 0)"/>
     <use xlink:href="#DejaVuSans-29" transform="translate(672.412109 0)"/>
    </g>
   </g>
   <g id="patch_8">
    <path d="M 439.138243 90.742858 
Q 418.54238 83.381388 398.999322 76.396217 
" style="fill: none; stroke: #c0392b; stroke-linecap: round"/>
    <path d="M 401.628787 79.141379 
L 398.999322 76.396217 
L 402.773131 75.939743 
" style="fill: none; stroke: #c0392b; stroke-linecap: round"/>
   </g>
   <g id="text_23">
    <!-- Max $x_{max}\approx1.73$ -->
    <g style="fill: #c0392b" transform="translate(424.509795 99.875483) scale(0.085 -0.085)">
     <defs>
      <path id="DejaVuSans-4d" d="M 628 4666 
L 1569 4666 
L 2759 1491 
L 3956 4666 
L 4897 4666 
L 4897 0 
L 4281 0 
L 4281 4097 
L 3078 897 
L 2444 897 
L 1241 4097 
L 1241 0 
L 628 0 
L 628 4666 
z
" transform="scale(0.015625)"/>
      <path id="DejaVuSans-78" d="M 3513 3500 
L 2247 1797 
L 3578 0 
L 2900 0 
L 1881 1375 
L 863 0 
L 184 0 
L 1544 1831 
L 300 3500 
L 978 3500 
L 1906 2253 
L 2834 3500 
L 3513 3500 
z
" transform="scale(0.015625)"/>
      <path id="DejaVuSans-Oblique-6d" d="M 5747 2113 
L 5338 0 
L 4763 0 
L 5166 2094 
Q 5191 2228 5203 2325 
Q 5216 2422 5216 2491 
Q 5216 2772 5059 2928 
Q 4903 3084 4622 3084 
Q 4203 3084 3875 2770 
Q 3547 2456 3450 1953 
L 3066 0 
L 2491 0 
L 2900 2094 
Q 2925 2209 2937 2307 
Q 2950 2406 2950 2484 
Q 2950 2769 2794 2926 
Q 2638 3084 2363 3084 
Q 1938 3084 1609 2770 
Q 1281 2456 1184 1953 
L 800 0 
L 225 0 
L 909 3500 
L 1484 3500 
L 1375 2956 
Q 1609 3263 1923 3423 
Q 2238 3584 2597 3584 
Q 2978 3584 3223 3384 
Q 3469 3184 3519 2828 
Q 3781 3197 4126 3390 
Q 4472 3584 4856 3584 
Q 5306 3584 5551 3325 
Q 5797 3066 5797 2591 
Q 5797 2488 5784 2364 
Q 5772 2241 5747 2113 
z
" transform="scale(0.015625)"/>
      <path id="DejaVuSans-2248" d="M 4684 1947 
L 4684 1388 
Q 4356 1144 4076 1036 
Q 3797 928 3494 928 
Q 3150 928 2694 1113 
Q 2663 1125 2641 1134 
Q 2622 1141 2575 1159 
Q 2091 1350 1797 1350 
Q 1522 1350 1253 1231 
Q 984 1113 678 850 
L 678 1409 
Q 1006 1653 1286 1761 
Q 1566 1869 1869 1869 
Q 2213 1869 2672 1684 
Q 2706 1669 2722 1663 
Q 2741 1656 2788 1638 
Q 3272 1447 3566 1447 
Q 3834 1447 4098 1564 
Q 4363 1681 4684 1947 
z
M 4684 3163 
L 4684 2606 
Q 4356 2359 4076 2251 
Q 3797 2144 3494 2144 
Q 3150 2144 2694 2328 
Q 2663 2341 2641 2350 
Q 2622 2356 2575 2375 
Q 2091 2566 1797 2566 
Q 1522 2566 1253 2447 
Q 984 2328 678 2069 
L 678 2625 
Q 1006 2869 1286 2976 
Q 1566 3084 1869 3084 
Q 2213 3084 2672 2900 
Q 2703 2888 2719 2881 
Q 2741 2872 2788 2853 
Q 3272 2663 3566 2663 
Q 3834 2663 4098 2780 
Q 4363 2897 4684 3163 
z
" transform="scale(0.015625)"/>
     </defs>
     <use xlink:href="#DejaVuSans-4d" transform="translate(0 0.78125)"/>
     <use xlink:href="#DejaVuSans-61" transform="translate(86.279297 0.78125)"/>
     <use xlink:href="#DejaVuSans-78" transform="translate(147.558594 0.78125)"/>
     <use xlink:href="#DejaVuSans-20" transform="translate(206.738281 0.78125)"/>
     <use xlink:href="#DejaVuSans-Oblique-78" transform="translate(238.525391 0.78125)"/>
     <use xlink:href="#DejaVuSans-Oblique-6d" transform="translate(297.705078 -15.625) scale(0.7)"/>
     <use xlink:href="#DejaVuSans-Oblique-61" transform="translate(365.893555 -15.625) scale(0.7)"/>
     <use xlink:href="#DejaVuSans-Oblique-78" transform="translate(408.789062 -15.625) scale(0.7)"/>
     <use xlink:href="#DejaVuSans-2248" transform="translate(472.431641 0.78125)"/>
     <use xlink:href="#DejaVuSans-31" transform="translate(575.703125 0.78125)"/>
     <use xlink:href="#DejaVuSans-2e" transform="translate(639.326172 0.78125)"/>
     <use xlink:href="#DejaVuSans-37" transform="translate(663.363281 0.78125)"/>
     <use xlink:href="#DejaVuSans-33" transform="translate(726.986328 0.78125)"/>
    </g>
   </g>
   <g id="patch_9">
    <path d="M 277.391642 196.386215 
Q 250.661201 209.258469 225.139545 221.548623 
" style="fill: none; stroke: #c96b10; stroke-width: 1.2; stroke-linecap: round"/>
    <path d="M 229.07459 221.607111 
L 225.139545 221.548623 
L 227.547362 218.43568 
" style="fill: none; stroke: #c96b10; stroke-width: 1.2; stroke-linecap: round"/>
   </g>
   <g id="text_24">
    <g id="patch_10">
     <path d="M 270.894846 195.018408 
L 358.454846 195.018408 
Q 360.918846 195.018408 360.918846 192.554408 
L 360.918846 164.309983 
Q 360.918846 161.845983 358.454846 161.845983 
L 270.894846 161.845983 
Q 268.430846 161.845983 268.430846 164.309983 
L 268.430846 192.554408 
Q 268.430846 195.018408 270.894846 195.018408 
z
" style="fill: #ffffff; opacity: 0.92; stroke: #c96b10; stroke-linejoin: miter"/>
    </g>
    <!-- $\mathbf{Now}$ (6% of $\Delta\tau$) -->
    <g style="fill: #c96b10" transform="translate(270.894846 170.996608) scale(0.088 -0.088)">
     <defs>
      <path id="DejaVuSans-Bold-4e" d="M 588 4666 
L 1931 4666 
L 3628 1466 
L 3628 4666 
L 4769 4666 
L 4769 0 
L 3425 0 
L 1728 3200 
L 1728 0 
L 588 0 
L 588 4666 
z
" transform="scale(0.015625)"/>
      <path id="DejaVuSans-Bold-6f" d="M 2203 2784 
Q 1831 2784 1636 2517 
Q 1441 2250 1441 1747 
Q 1441 1244 1636 976 
Q 1831 709 2203 709 
Q 2569 709 2762 976 
Q 2956 1244 2956 1747 
Q 2956 2250 2762 2517 
Q 2569 2784 2203 2784 
z
M 2203 3584 
Q 3106 3584 3614 3096 
Q 4122 2609 4122 1747 
Q 4122 884 3614 396 
Q 3106 -91 2203 -91 
Q 1297 -91 786 396 
Q 275 884 275 1747 
Q 275 2609 786 3096 
Q 1297 3584 2203 3584 
z
" transform="scale(0.015625)"/>
      <path id="DejaVuSans-Bold-77" d="M 225 3500 
L 1313 3500 
L 1900 1088 
L 2491 3500 
L 3425 3500 
L 4013 1113 
L 4603 3500 
L 5691 3500 
L 4769 0 
L 3547 0 
L 2956 2406 
L 2369 0 
L 1147 0 
L 225 3500 
z
" transform="scale(0.015625)"/>
      <path id="DejaVuSans-25" d="M 4653 2053 
Q 4381 2053 4226 1822 
Q 4072 1591 4072 1178 
Q 4072 772 4226 539 
Q 4381 306 4653 306 
Q 4919 306 5073 539 
Q 5228 772 5228 1178 
Q 5228 1588 5073 1820 
Q 4919 2053 4653 2053 
z
M 4653 2450 
Q 5147 2450 5437 2106 
Q 5728 1763 5728 1178 
Q 5728 594 5436 251 
Q 5144 -91 4653 -91 
Q 4153 -91 3862 251 
Q 3572 594 3572 1178 
Q 3572 1766 3864 2108 
Q 4156 2450 4653 2450 
z
M 1428 4353 
Q 1159 4353 1004 4120 
Q 850 3888 850 3481 
Q 850 3069 1003 2837 
Q 1156 2606 1428 2606 
Q 1700 2606 1854 2837 
Q 2009 3069 2009 3481 
Q 2009 3884 1853 4118 
Q 1697 4353 1428 4353 
z
M 4250 4750 
L 4750 4750 
L 1831 -91 
L 1331 -91 
L 4250 4750 
z
M 1428 4750 
Q 1922 4750 2215 4408 
Q 2509 4066 2509 3481 
Q 2509 2891 2217 2550 
Q 1925 2209 1428 2209 
Q 931 2209 642 2551 
Q 353 2894 353 3481 
Q 353 4063 643 4406 
Q 934 4750 1428 4750 
z
" transform="scale(0.015625)"/>
      <path id="DejaVuSans-66" d="M 2375 4863 
L 2375 4384 
L 1825 4384 
Q 1516 4384 1395 4259 
Q 1275 4134 1275 3809 
L 1275 3500 
L 2222 3500 
L 2222 3053 
L 1275 3053 
L 1275 0 
L 697 0 
L 697 3053 
L 147 3053 
L 147 3500 
L 697 3500 
L 697 3744 
Q 697 4328 969 4595 
Q 1241 4863 1831 4863 
L 2375 4863 
z
" transform="scale(0.015625)"/>
      <path id="DejaVuSans-394" d="M 2188 4044 
L 906 525 
L 3472 525 
L 2188 4044 
z
M 50 0 
L 1831 4666 
L 2547 4666 
L 4325 0 
L 50 0 
z
" transform="scale(0.015625)"/>
     </defs>
     <use xlink:href="#DejaVuSans-Bold-4e" transform="translate(0 0.015625)"/>
     <use xlink:href="#DejaVuSans-Bold-6f" transform="translate(83.691406 0.015625)"/>
     <use xlink:href="#DejaVuSans-Bold-77" transform="translate(152.392578 0.015625)"/>
     <use xlink:href="#DejaVuSans-20" transform="translate(244.775391 0.015625)"/>
     <use xlink:href="#DejaVuSans-28" transform="translate(276.5625 0.015625)"/>
     <use xlink:href="#DejaVuSans-36" transform="translate(315.576172 0.015625)"/>
     <use xlink:href="#DejaVuSans-25" transform="translate(379.199219 0.015625)"/>
     <use xlink:href="#DejaVuSans-20" transform="translate(474.21875 0.015625)"/>
     <use xlink:href="#DejaVuSans-6f" transform="translate(506.005859 0.015625)"/>
     <use xlink:href="#DejaVuSans-66" transform="translate(567.1875 0.015625)"/>
     <use xlink:href="#DejaVuSans-20" transform="translate(602.392578 0.015625)"/>
     <use xlink:href="#DejaVuSans-394" transform="translate(634.179688 0.015625)"/>
     <use xlink:href="#DejaVuSans-Oblique-3c4" transform="translate(702.587891 0.015625)"/>
     <use xlink:href="#DejaVuSans-29" transform="translate(762.792969 0.015625)"/>
    </g>
    <!-- Analytic: $w_0 = -2/3$ -->
    <g style="fill: #c96b10" transform="translate(270.894846 180.852333) scale(0.088 -0.088)">
     <defs>
      <path id="DejaVuSans-41" d="M 2188 4044 
L 1331 1722 
L 3047 1722 
L 2188 4044 
z
M 1831 4666 
L 2547 4666 
L 4325 0 
L 3669 0 
L 3244 1197 
L 1141 1197 
L 716 0 
L 50 0 
L 1831 4666 
z
" transform="scale(0.015625)"/>
      <path id="DejaVuSans-3a" d="M 750 794 
L 1409 794 
L 1409 0 
L 750 0 
L 750 794 
z
M 750 3309 
L 1409 3309 
L 1409 2516 
L 750 2516 
L 750 3309 
z
" transform="scale(0.015625)"/>
      <path id="DejaVuSans-Oblique-77" d="M 544 3500 
L 1113 3500 
L 1259 684 
L 2566 3500 
L 3231 3500 
L 3425 684 
L 4666 3500 
L 5241 3500 
L 3641 0 
L 2969 0 
L 2797 2900 
L 1459 0 
L 781 0 
L 544 3500 
z
" transform="scale(0.015625)"/>
      <path id="DejaVuSans-2212" d="M 678 2272 
L 4684 2272 
L 4684 1741 
L 678 1741 
L 678 2272 
z
" transform="scale(0.015625)"/>
     </defs>
     <use xlink:href="#DejaVuSans-41" transform="translate(0 0.015625)"/>
     <use xlink:href="#DejaVuSans-6e" transform="translate(68.408203 0.015625)"/>
     <use xlink:href="#DejaVuSans-61" transform="translate(131.787109 0.015625)"/>
     <use xlink:href="#DejaVuSans-6c" transform="translate(193.066406 0.015625)"/>
     <use xlink:href="#DejaVuSans-79" transform="translate(220.849609 0.015625)"/>
     <use xlink:href="#DejaVuSans-74" transform="translate(280.029297 0.015625)"/>
     <use xlink:href="#DejaVuSans-69" transform="translate(319.238281 0.015625)"/>
     <use xlink:href="#DejaVuSans-63" transform="translate(347.021484 0.015625)"/>
     <use xlink:href="#DejaVuSans-3a" transform="translate(402.001953 0.015625)"/>
     <use xlink:href="#DejaVuSans-20" transform="translate(435.693359 0.015625)"/>
     <use xlink:href="#DejaVuSans-Oblique-77" transform="translate(467.480469 0.015625)"/>
     <use xlink:href="#DejaVuSans-30" transform="translate(549.267578 -16.390625) scale(0.7)"/>
     <use xlink:href="#DejaVuSans-3d" transform="translate(616.020508 0.015625)"/>
     <use xlink:href="#DejaVuSans-2212" transform="translate(719.291992 0.015625)"/>
     <use xlink:href="#DejaVuSans-32" transform="translate(803.081055 0.015625)"/>
     <use xlink:href="#DejaVuSans-2f" transform="translate(866.704102 0.015625)"/>
     <use xlink:href="#DejaVuSans-33" transform="translate(900.395508 0.015625)"/>
    </g>
    <!-- (valid for $a_0/a_* \ll 1$) -->
    <g style="fill: #c96b10" transform="translate(270.894846 190.724283) scale(0.088 -0.088)">
     <defs>
      <path id="DejaVuSans-76" d="M 191 3500 
L 800 3500 
L 1894 563 
L 2988 3500 
L 3597 3500 
L 2284 0 
L 1503 0 
L 191 3500 
z
" transform="scale(0.015625)"/>
      <path id="DejaVuSans-226a" d="M 6238 3253 
L 3656 2003 
L 6238 759 
L 6238 144 
L 2869 1769 
L 2869 2266 
L 6238 3897 
L 6238 3253 
z
M 3831 3253 
L 1250 2003 
L 3831 759 
L 3831 144 
L 463 1769 
L 463 2266 
L 3831 3897 
L 3831 3253 
z
" transform="scale(0.015625)"/>
     </defs>
     <use xlink:href="#DejaVuSans-28" transform="translate(0 0.015625)"/>
     <use xlink:href="#DejaVuSans-76" transform="translate(39.013672 0.015625)"/>
     <use xlink:href="#DejaVuSans-61" transform="translate(98.193359 0.015625)"/>
     <use xlink:href="#DejaVuSans-6c" transform="translate(159.472656 0.015625)"/>
     <use xlink:href="#DejaVuSans-69" transform="translate(187.255859 0.015625)"/>
     <use xlink:href="#DejaVuSans-64" transform="translate(215.039062 0.015625)"/>
     <use xlink:href="#DejaVuSans-20" transform="translate(278.515625 0.015625)"/>
     <use xlink:href="#DejaVuSans-66" transform="translate(310.302734 0.015625)"/>
     <use xlink:href="#DejaVuSans-6f" transform="translate(345.507812 0.015625)"/>
     <use xlink:href="#DejaVuSans-72" transform="translate(406.689453 0.015625)"/>
     <use xlink:href="#DejaVuSans-20" transform="translate(447.802734 0.015625)"/>
     <use xlink:href="#DejaVuSans-Oblique-61" transform="translate(479.589844 0.015625)"/>
     <use xlink:href="#DejaVuSans-30" transform="translate(540.869141 -16.390625) scale(0.7)"/>
     <use xlink:href="#DejaVuSans-2f" transform="translate(588.139648 0.015625)"/>
     <use xlink:href="#DejaVuSans-Oblique-61" transform="translate(621.831055 0.015625)"/>
     <use xlink:href="#DejaVuSans-2a" transform="translate(696.748047 -16.390625) scale(0.7)"/>
     <use xlink:href="#DejaVuSans-226a" transform="translate(767.602539 0.015625)"/>
     <use xlink:href="#DejaVuSans-31" transform="translate(891.772461 0.015625)"/>
     <use xlink:href="#DejaVuSans-29" transform="translate(955.395508 0.015625)"/>
    </g>
   </g>
   <g id="text_25">
    <g id="patch_11">
     <path d="M 62.403712 300.238824 
L 701.843712 300.238824 
Q 704.243712 300.238824 704.243712 297.838824 
L 704.243712 290.078824 
Q 704.243712 287.678824 701.843712 287.678824 
L 62.403712 287.678824 
Q 60.003712 287.678824 60.003712 290.078824 
L 60.003712 297.838824 
Q 60.003712 300.238824 62.403712 300.238824 
z
" style="fill: #fffbe6; opacity: 0.88; stroke: #ccaa00; stroke-linejoin: miter"/>
    </g>
    <!-- Matter-free limit ($\rho=p=0$). With $\Omega_m\approx0.31$: cycle position $f\approx5$–$13\%$ (Section 3.2). Physical $a_0/a_*\approx0.06$–$0.15$, much smaller than illustrated bounce minimum. -->
    <g style="fill: #555555" transform="translate(62.403712 296.158824) scale(0.08 -0.08)">
     <defs>
      <path id="DejaVuSans-Oblique-4d" d="M 1081 4666 
L 2028 4666 
L 2572 1522 
L 4378 4666 
L 5350 4666 
L 4441 0 
L 3828 0 
L 4622 4091 
L 2791 897 
L 2175 897 
L 1581 4103 
L 788 0 
L 172 0 
L 1081 4666 
z
" transform="scale(0.015625)"/>
      <path id="DejaVuSans-Oblique-74" d="M 2706 3500 
L 2619 3053 
L 1472 3053 
L 1100 1153 
Q 1081 1047 1072 975 
Q 1063 903 1063 863 
Q 1063 663 1183 572 
Q 1303 481 1569 481 
L 2150 481 
L 2053 0 
L 1503 0 
Q 991 0 739 200 
Q 488 400 488 806 
Q 488 878 497 964 
Q 506 1050 525 1153 
L 897 3053 
L 409 3053 
L 500 3500 
L 978 3500 
L 1172 4494 
L 1747 4494 
L 1556 3500 
L 2706 3500 
z
" transform="scale(0.015625)"/>
      <path id="DejaVuSans-Oblique-65" d="M 3078 2063 
Q 3088 2113 3092 2166 
Q 3097 2219 3097 2272 
Q 3097 2653 2873 2875 
Q 2650 3097 2266 3097 
Q 1838 3097 1509 2826 
Q 1181 2556 1013 2059 
L 3078 2063 
z
M 3578 1613 
L 903 1613 
Q 884 1494 878 1425 
Q 872 1356 872 1306 
Q 872 872 1139 634 
Q 1406 397 1894 397 
Q 2269 397 2603 481 
Q 2938 566 3225 728 
L 3116 159 
Q 2806 34 2476 -28 
Q 2147 -91 1806 -91 
Q 1078 -91 686 257 
Q 294 606 294 1247 
Q 294 1794 489 2264 
Q 684 2734 1063 3103 
Q 1306 3334 1642 3459 
Q 1978 3584 2356 3584 
Q 2950 3584 3301 3228 
Q 3653 2872 3653 2272 
Q 3653 2128 3634 1964 
Q 3616 1800 3578 1613 
z
" transform="scale(0.015625)"/>
      <path id="DejaVuSans-Oblique-72" d="M 2853 2969 
Q 2766 3016 2653 3041 
Q 2541 3066 2413 3066 
Q 1953 3066 1609 2717 
Q 1266 2369 1153 1784 
L 800 0 
L 225 0 
L 909 3500 
L 1484 3500 
L 1375 2956 
Q 1603 3259 1920 3421 
Q 2238 3584 2597 3584 
Q 2691 3584 2781 3573 
Q 2872 3563 2963 3538 
L 2853 2969 
z
" transform="scale(0.015625)"/>
      <path id="DejaVuSans-Oblique-2d" d="M 391 2009 
L 2075 2009 
L 1978 1497 
L 288 1497 
L 391 2009 
z
" transform="scale(0.015625)"/>
      <path id="DejaVuSans-Oblique-66" d="M 3059 4863 
L 2969 4384 
L 2419 4384 
Q 2106 4384 1964 4261 
Q 1822 4138 1753 3809 
L 1691 3500 
L 2638 3500 
L 2553 3053 
L 1606 3053 
L 1013 0 
L 434 0 
L 1031 3053 
L 481 3053 
L 563 3500 
L 1113 3500 
L 1159 3744 
Q 1278 4363 1576 4613 
Q 1875 4863 2516 4863 
L 3059 4863 
z
" transform="scale(0.015625)"/>
      <path id="DejaVuSans-Oblique-20" transform="scale(0.015625)"/>
      <path id="DejaVuSans-Oblique-6c" d="M 1172 4863 
L 1747 4863 
L 800 0 
L 225 0 
L 1172 4863 
z
" transform="scale(0.015625)"/>
      <path id="DejaVuSans-Oblique-69" d="M 1172 4863 
L 1747 4863 
L 1606 4134 
L 1031 4134 
L 1172 4863 
z
M 909 3500 
L 1484 3500 
L 800 0 
L 225 0 
L 909 3500 
z
" transform="scale(0.015625)"/>
      <path id="DejaVuSans-Oblique-28" d="M 2731 4856 
Q 1903 3822 1495 2892 
Q 1088 1963 1088 1100 
Q 1088 606 1206 120 
Q 1325 -366 1563 -844 
L 1063 -844 
Q 775 -306 634 201 
Q 494 709 494 1197 
Q 494 2125 923 3036 
Q 1353 3947 2222 4856 
L 2731 4856 
z
" transform="scale(0.015625)"/>
      <path id="DejaVuSans-Oblique-3c1" d="M 1203 2875 
Q 1453 3194 1981 3475 
Q 2188 3584 2756 3584 
Q 3394 3584 3694 3078 
Q 3994 2572 3834 1747 
Q 3672 922 3175 415 
Q 2678 -91 2041 -91 
Q 1656 -91 1409 63 
Q 1163 213 1044 525 
L 681 -1331 
L 103 -1331 
L 697 1716 
Q 838 2438 1203 2875 
z
M 3238 1747 
Q 3359 2381 3169 2744 
Q 2978 3103 2522 3103 
Q 2066 3103 1734 2744 
Q 1403 2381 1281 1747 
Q 1156 1113 1347 750 
Q 1538 391 1994 391 
Q 2450 391 2781 750 
Q 3113 1113 3238 1747 
z
" transform="scale(0.015625)"/>
      <path id="DejaVuSans-Oblique-70" d="M 3175 2156 
Q 3175 2616 2975 2859 
Q 2775 3103 2400 3103 
Q 2144 3103 1911 2972 
Q 1678 2841 1497 2591 
Q 1319 2344 1212 1994 
Q 1106 1644 1106 1300 
Q 1106 863 1306 627 
Q 1506 391 1875 391 
Q 2147 391 2380 519 
Q 2613 647 2778 891 
Q 2956 1147 3065 1494 
Q 3175 1841 3175 2156 
z
M 1394 2969 
Q 1625 3272 1939 3428 
Q 2253 3584 2638 3584 
Q 3175 3584 3472 3232 
Q 3769 2881 3769 2247 
Q 3769 1728 3584 1258 
Q 3400 788 3053 416 
Q 2822 169 2531 39 
Q 2241 -91 1919 -91 
Q 1547 -91 1294 64 
Q 1041 219 916 525 
L 556 -1331 
L -19 -1331 
L 922 3500 
L 1497 3500 
L 1394 2969 
z
" transform="scale(0.015625)"/>
      <path id="DejaVuSans-Oblique-29" d="M -397 -844 
Q 434 191 840 1120 
Q 1247 2050 1247 2913 
Q 1247 3406 1130 3892 
Q 1013 4378 775 4856 
L 1275 4856 
Q 1563 4316 1703 3812 
Q 1844 3309 1844 2822 
Q 1844 1891 1411 973 
Q 978 56 116 -844 
L -397 -844 
z
" transform="scale(0.015625)"/>
      <path id="DejaVuSans-Oblique-2e" d="M 525 794 
L 1184 794 
L 1031 0 
L 372 0 
L 525 794 
z
" transform="scale(0.015625)"/>
      <path id="DejaVuSans-Oblique-57" d="M 616 4666 
L 1228 4666 
L 1453 697 
L 3213 4666 
L 3916 4666 
L 4147 697 
L 5888 4666 
L 6528 4666 
L 4453 0 
L 3659 0 
L 3444 3891 
L 1697 0 
L 903 0 
L 616 4666 
z
" transform="scale(0.015625)"/>
      <path id="DejaVuSans-Oblique-68" d="M 3566 2113 
L 3156 0 
L 2578 0 
L 2988 2091 
Q 3016 2238 3031 2350 
Q 3047 2463 3047 2528 
Q 3047 2791 2881 2937 
Q 2716 3084 2419 3084 
Q 1956 3084 1617 2771 
Q 1278 2459 1178 1941 
L 800 0 
L 225 0 
L 1172 4863 
L 1747 4863 
L 1375 2950 
Q 1594 3244 1934 3414 
Q 2275 3584 2650 3584 
Q 3113 3584 3367 3334 
Q 3622 3084 3622 2631 
Q 3622 2519 3608 2391 
Q 3594 2263 3566 2113 
z
" transform="scale(0.015625)"/>
      <path id="DejaVuSans-3a9" d="M 4647 556 
L 4647 0 
L 2772 0 
L 2772 556 
Q 3325 859 3634 1378 
Q 3944 1897 3944 2528 
Q 3944 3278 3531 3731 
Q 3119 4184 2444 4184 
Q 1769 4184 1355 3729 
Q 941 3275 941 2528 
Q 941 1897 1250 1378 
Q 1563 859 2119 556 
L 2119 0 
L 244 0 
L 244 556 
L 1241 556 
Q 747 991 519 1456 
Q 294 1922 294 2497 
Q 294 3491 894 4106 
Q 1491 4722 2444 4722 
Q 3391 4722 3994 4106 
Q 4594 3494 4594 2528 
Q 4594 1922 4372 1459 
Q 4150 997 3647 556 
L 4647 556 
z
" transform="scale(0.015625)"/>
      <path id="DejaVuSans-Oblique-3a" d="M 978 3309 
L 1638 3309 
L 1484 2516 
L 825 2516 
L 978 3309 
z
M 488 794 
L 1147 794 
L 991 0 
L 331 0 
L 488 794 
z
" transform="scale(0.015625)"/>
      <path id="DejaVuSans-Oblique-63" d="M 3431 3366 
L 3316 2797 
Q 3109 2947 2876 3022 
Q 2644 3097 2394 3097 
Q 2119 3097 1870 3000 
Q 1622 2903 1453 2725 
Q 1184 2453 1037 2087 
Q 891 1722 891 1331 
Q 891 859 1127 628 
Q 1363 397 1844 397 
Q 2081 397 2348 469 
Q 2616 541 2906 684 
L 2797 116 
Q 2547 13 2283 -39 
Q 2019 -91 1741 -91 
Q 1044 -91 669 257 
Q 294 606 294 1253 
Q 294 1797 489 2255 
Q 684 2713 1069 3078 
Q 1331 3328 1684 3456 
Q 2038 3584 2456 3584 
Q 2700 3584 2940 3529 
Q 3181 3475 3431 3366 
z
" transform="scale(0.015625)"/>
      <path id="DejaVuSans-Oblique-79" d="M 1588 -325 
Q 1188 -997 936 -1164 
Q 684 -1331 294 -1331 
L -159 -1331 
L -63 -850 
L 269 -850 
Q 509 -850 678 -719 
Q 847 -588 1056 -206 
L 1234 128 
L 459 3500 
L 1069 3500 
L 1650 819 
L 3256 3500 
L 3859 3500 
L 1588 -325 
z
" transform="scale(0.015625)"/>
      <path id="DejaVuSans-Oblique-6f" d="M 1625 -91 
Q 1009 -91 651 289 
Q 294 669 294 1325 
Q 294 1706 417 2101 
Q 541 2497 738 2766 
Q 1047 3184 1428 3384 
Q 1809 3584 2291 3584 
Q 2888 3584 3255 3212 
Q 3622 2841 3622 2241 
Q 3622 1825 3500 1412 
Q 3378 1000 3181 728 
Q 2875 309 2494 109 
Q 2113 -91 1625 -91 
z
M 891 1344 
Q 891 869 1089 633 
Q 1288 397 1691 397 
Q 2269 397 2648 901 
Q 3028 1406 3028 2181 
Q 3028 2634 2825 2865 
Q 2622 3097 2228 3097 
Q 1903 3097 1650 2945 
Q 1397 2794 1197 2484 
Q 1050 2253 970 1956 
Q 891 1659 891 1344 
z
" transform="scale(0.015625)"/>
      <path id="DejaVuSans-Oblique-73" d="M 3200 3397 
L 3091 2853 
Q 2863 2978 2609 3040 
Q 2356 3103 2088 3103 
Q 1634 3103 1373 2948 
Q 1113 2794 1113 2528 
Q 1113 2219 1719 2053 
Q 1766 2041 1788 2034 
L 1972 1978 
Q 2547 1819 2739 1644 
Q 2931 1469 2931 1166 
Q 2931 609 2489 259 
Q 2047 -91 1331 -91 
Q 1053 -91 747 -37 
Q 441 16 72 128 
L 184 722 
Q 500 559 806 475 
Q 1113 391 1394 391 
Q 1816 391 2080 572 
Q 2344 753 2344 1031 
Q 2344 1331 1650 1516 
L 1591 1531 
L 1394 1581 
Q 956 1697 753 1886 
Q 550 2075 550 2369 
Q 550 2928 970 3256 
Q 1391 3584 2113 3584 
Q 2397 3584 2667 3537 
Q 2938 3491 3200 3397 
z
" transform="scale(0.015625)"/>
      <path id="DejaVuSans-Oblique-6e" d="M 3566 2113 
L 3156 0 
L 2578 0 
L 2988 2091 
Q 3016 2238 3031 2350 
Q 3047 2463 3047 2528 
Q 3047 2791 2881 2937 
Q 2716 3084 2419 3084 
Q 1956 3084 1622 2776 
Q 1288 2469 1184 1941 
L 800 0 
L 225 0 
L 903 3500 
L 1478 3500 
L 1363 2950 
Q 1603 3253 1940 3418 
Q 2278 3584 2650 3584 
Q 3113 3584 3367 3334 
Q 3622 3084 3622 2631 
Q 3622 2519 3608 2391 
Q 3594 2263 3566 2113 
z
" transform="scale(0.015625)"/>
      <path id="DejaVuSansDisplay-2013" d="M 313 1978 
L 2888 1978 
L 2888 1528 
L 313 1528 
L 313 1978 
z
" transform="scale(0.015625)"/>
      <path id="DejaVuSans-Oblique-53" d="M 3859 4513 
L 3738 3897 
Q 3422 4066 3111 4152 
Q 2800 4238 2509 4238 
Q 1944 4238 1609 3991 
Q 1275 3744 1275 3334 
Q 1275 3109 1398 2989 
Q 1522 2869 2034 2731 
L 2413 2638 
Q 3053 2472 3303 2217 
Q 3553 1963 3553 1503 
Q 3553 797 2998 353 
Q 2444 -91 1538 -91 
Q 1166 -91 791 -17 
Q 416 56 38 206 
L 166 856 
Q 513 641 861 531 
Q 1209 422 1556 422 
Q 2147 422 2503 684 
Q 2859 947 2859 1369 
Q 2859 1650 2717 1795 
Q 2575 1941 2106 2059 
L 1728 2156 
Q 1081 2325 845 2545 
Q 609 2766 609 3163 
Q 609 3859 1145 4304 
Q 1681 4750 2541 4750 
Q 2875 4750 3203 4690 
Q 3531 4631 3859 4513 
z
" transform="scale(0.015625)"/>
      <path id="DejaVuSans-Oblique-33" d="M 1013 4550 
Q 1356 4650 1679 4700 
Q 2003 4750 2316 4750 
Q 2934 4750 3296 4475 
Q 3659 4200 3659 3738 
Q 3659 3284 3373 2959 
Q 3088 2634 2584 2516 
Q 2978 2403 3162 2165 
Q 3347 1928 3347 1538 
Q 3347 1163 3167 834 
Q 2988 506 2650 269 
Q 2394 88 2037 -1 
Q 1681 -91 1216 -91 
Q 922 -91 622 -33 
Q 322 25 13 141 
L 128 738 
Q 422 575 720 495 
Q 1019 416 1331 416 
Q 1947 416 2330 733 
Q 2713 1050 2713 1556 
Q 2713 1881 2469 2057 
Q 2225 2234 1772 2234 
L 1228 2234 
L 1325 2747 
L 1900 2747 
Q 2419 2747 2717 2984 
Q 3016 3222 3016 3628 
Q 3016 3922 2797 4083 
Q 2578 4244 2181 4244 
Q 1881 4244 1567 4180 
Q 1253 4116 916 3988 
L 1013 4550 
z
" transform="scale(0.015625)"/>
      <path id="DejaVuSans-Oblique-32" d="M 2950 2253 
L 934 525 
L 3163 525 
L 3053 0 
L 25 0 
L 128 531 
L 2234 2338 
Q 2656 2703 2832 2979 
Q 3009 3256 3009 3547 
Q 3009 3850 2796 4040 
Q 2584 4231 2241 4231 
Q 1944 4231 1581 4125 
Q 1219 4019 806 3816 
L 922 4441 
Q 1309 4594 1662 4672 
Q 2016 4750 2316 4750 
Q 2928 4750 3301 4425 
Q 3675 4100 3675 3572 
Q 3675 3216 3497 2892 
Q 3319 2569 2950 2253 
z
" transform="scale(0.015625)"/>
      <path id="DejaVuSans-Oblique-50" d="M 1081 4666 
L 2541 4666 
Q 3178 4666 3512 4369 
Q 3847 4072 3847 3500 
Q 3847 2731 3353 2303 
Q 2859 1875 1966 1875 
L 1172 1875 
L 806 0 
L 172 0 
L 1081 4666 
z
M 1613 4147 
L 1275 2394 
L 2069 2394 
Q 2606 2394 2893 2669 
Q 3181 2944 3181 3456 
Q 3181 3784 2986 3965 
Q 2791 4147 2438 4147 
L 1613 4147 
z
" transform="scale(0.015625)"/>
      <path id="DejaVuSans-Oblique-2c" d="M 575 794 
L 1234 794 
L 1131 256 
L 422 -744 
L 19 -744 
L 469 256 
L 575 794 
z
" transform="scale(0.015625)"/>
      <path id="DejaVuSans-Oblique-75" d="M 428 1388 
L 838 3500 
L 1416 3500 
L 1006 1409 
Q 975 1256 961 1147 
Q 947 1038 947 966 
Q 947 700 1109 554 
Q 1272 409 1569 409 
Q 2031 409 2368 721 
Q 2706 1034 2809 1563 
L 3194 3500 
L 3769 3500 
L 3091 0 
L 2516 0 
L 2631 550 
Q 2388 244 2052 76 
Q 1716 -91 1338 -91 
Q 878 -91 622 161 
Q 366 413 366 863 
Q 366 956 381 1097 
Q 397 1238 428 1388 
z
" transform="scale(0.015625)"/>
      <path id="DejaVuSans-Oblique-64" d="M 2675 525 
Q 2444 222 2128 65 
Q 1813 -91 1428 -91 
Q 903 -91 598 267 
Q 294 625 294 1247 
Q 294 1766 478 2236 
Q 663 2706 1013 3078 
Q 1244 3325 1534 3454 
Q 1825 3584 2144 3584 
Q 2481 3584 2739 3421 
Q 2997 3259 3138 2956 
L 3513 4863 
L 4091 4863 
L 3144 0 
L 2566 0 
L 2675 525 
z
M 891 1350 
Q 891 897 1095 644 
Q 1300 391 1663 391 
Q 1931 391 2161 520 
Q 2391 650 2566 903 
Q 2750 1166 2856 1509 
Q 2963 1853 2963 2188 
Q 2963 2622 2758 2865 
Q 2553 3109 2194 3109 
Q 1922 3109 1687 2981 
Q 1453 2853 1288 2613 
Q 1106 2353 998 2009 
Q 891 1666 891 1350 
z
" transform="scale(0.015625)"/>
      <path id="DejaVuSans-Oblique-62" d="M 3169 2138 
Q 3169 2591 2961 2847 
Q 2753 3103 2388 3103 
Q 2122 3103 1889 2973 
Q 1656 2844 1484 2597 
Q 1303 2338 1198 1995 
Q 1094 1653 1094 1313 
Q 1094 881 1298 636 
Q 1503 391 1863 391 
Q 2134 391 2365 517 
Q 2597 644 2772 891 
Q 2950 1147 3059 1487 
Q 3169 1828 3169 2138 
z
M 1381 2969 
Q 1594 3256 1914 3420 
Q 2234 3584 2584 3584 
Q 3122 3584 3439 3221 
Q 3756 2859 3756 2241 
Q 3756 1734 3570 1259 
Q 3384 784 3041 416 
Q 2816 172 2522 40 
Q 2228 -91 1906 -91 
Q 1566 -91 1316 65 
Q 1066 222 909 531 
L 806 0 
L 231 0 
L 1178 4863 
L 1753 4863 
L 1381 2969 
z
" transform="scale(0.015625)"/>
     </defs>
     <use xlink:href="#DejaVuSans-Oblique-4d" transform="translate(0 0.015625)"/>
     <use xlink:href="#DejaVuSans-Oblique-61" transform="translate(86.279297 0.015625)"/>
     <use xlink:href="#DejaVuSans-Oblique-74" transform="translate(147.558594 0.015625)"/>
     <use xlink:href="#DejaVuSans-Oblique-74" transform="translate(186.767578 0.015625)"/>
     <use xlink:href="#DejaVuSans-Oblique-65" transform="translate(225.976562 0.015625)"/>
     <use xlink:href="#DejaVuSans-Oblique-72" transform="translate(287.5 0.015625)"/>
     <use xlink:href="#DejaVuSans-Oblique-2d" transform="translate(328.613281 0.015625)"/>
     <use xlink:href="#DejaVuSans-Oblique-66" transform="translate(364.697266 0.015625)"/>
     <use xlink:href="#DejaVuSans-Oblique-72" transform="translate(399.902344 0.015625)"/>
     <use xlink:href="#DejaVuSans-Oblique-65" transform="translate(441.015625 0.015625)"/>
     <use xlink:href="#DejaVuSans-Oblique-65" transform="translate(502.539062 0.015625)"/>
     <use xlink:href="#DejaVuSans-Oblique-20" transform="translate(564.0625 0.015625)"/>
     <use xlink:href="#DejaVuSans-Oblique-6c" transform="translate(595.849609 0.015625)"/>
     <use xlink:href="#DejaVuSans-Oblique-69" transform="translate(623.632812 0.015625)"/>
     <use xlink:href="#DejaVuSans-Oblique-6d" transform="translate(651.416016 0.015625)"/>
     <use xlink:href="#DejaVuSans-Oblique-69" transform="translate(748.828125 0.015625)"/>
     <use xlink:href="#DejaVuSans-Oblique-74" transform="translate(776.611328 0.015625)"/>
     <use xlink:href="#DejaVuSans-Oblique-20" transform="translate(815.820312 0.015625)"/>
     <use xlink:href="#DejaVuSans-Oblique-28" transform="translate(847.607422 0.015625)"/>
     <use xlink:href="#DejaVuSans-Oblique-3c1" transform="translate(886.621094 0.015625)"/>
     <use xlink:href="#DejaVuSans-3d" transform="translate(969.580078 0.015625)"/>
     <use xlink:href="#DejaVuSans-Oblique-70" transform="translate(1072.851562 0.015625)"/>
     <use xlink:href="#DejaVuSans-3d" transform="translate(1155.810547 0.015625)"/>
     <use xlink:href="#DejaVuSans-30" transform="translate(1259.082031 0.015625)"/>
     <use xlink:href="#DejaVuSans-Oblique-29" transform="translate(1322.705078 0.015625)"/>
     <use xlink:href="#DejaVuSans-Oblique-2e" transform="translate(1361.71875 0.015625)"/>
     <use xlink:href="#DejaVuSans-Oblique-20" transform="translate(1393.505859 0.015625)"/>
     <use xlink:href="#DejaVuSans-Oblique-57" transform="translate(1425.292969 0.015625)"/>
     <use xlink:href="#DejaVuSans-Oblique-69" transform="translate(1524.169922 0.015625)"/>
     <use xlink:href="#DejaVuSans-Oblique-74" transform="translate(1551.953125 0.015625)"/>
     <use xlink:href="#DejaVuSans-Oblique-68" transform="translate(1591.162109 0.015625)"/>
     <use xlink:href="#DejaVuSans-Oblique-20" transform="translate(1654.541016 0.015625)"/>
     <use xlink:href="#DejaVuSans-3a9" transform="translate(1686.328125 0.015625)"/>
     <use xlink:href="#DejaVuSans-Oblique-6d" transform="translate(1763.701172 -16.390625) scale(0.7)"/>
     <use xlink:href="#DejaVuSans-2248" transform="translate(1854.106445 0.015625)"/>
     <use xlink:href="#DejaVuSans-30" transform="translate(1957.37793 0.015625)"/>
     <use xlink:href="#DejaVuSans-2e" transform="translate(2021.000977 0.015625)"/>
     <use xlink:href="#DejaVuSans-33" transform="translate(2052.788086 0.015625)"/>
     <use xlink:href="#DejaVuSans-31" transform="translate(2116.411133 0.015625)"/>
     <use xlink:href="#DejaVuSans-Oblique-3a" transform="translate(2180.03418 0.015625)"/>
     <use xlink:href="#DejaVuSans-Oblique-20" transform="translate(2213.725586 0.015625)"/>
     <use xlink:href="#DejaVuSans-Oblique-63" transform="translate(2245.512695 0.015625)"/>
     <use xlink:href="#DejaVuSans-Oblique-79" transform="translate(2300.493164 0.015625)"/>
     <use xlink:href="#DejaVuSans-Oblique-63" transform="translate(2359.672852 0.015625)"/>
     <use xlink:href="#DejaVuSans-Oblique-6c" transform="translate(2414.65332 0.015625)"/>
     <use xlink:href="#DejaVuSans-Oblique-65" transform="translate(2442.436523 0.015625)"/>
     <use xlink:href="#DejaVuSans-Oblique-20" transform="translate(2503.959961 0.015625)"/>
     <use xlink:href="#DejaVuSans-Oblique-70" transform="translate(2535.74707 0.015625)"/>
     <use xlink:href="#DejaVuSans-Oblique-6f" transform="translate(2599.223633 0.015625)"/>
     <use xlink:href="#DejaVuSans-Oblique-73" transform="translate(2660.405273 0.015625)"/>
     <use xlink:href="#DejaVuSans-Oblique-69" transform="translate(2712.504883 0.015625)"/>
     <use xlink:href="#DejaVuSans-Oblique-74" transform="translate(2740.288086 0.015625)"/>
     <use xlink:href="#DejaVuSans-Oblique-69" transform="translate(2779.49707 0.015625)"/>
     <use xlink:href="#DejaVuSans-Oblique-6f" transform="translate(2807.280273 0.015625)"/>
     <use xlink:href="#DejaVuSans-Oblique-6e" transform="translate(2868.461914 0.015625)"/>
     <use xlink:href="#DejaVuSans-Oblique-20" transform="translate(2931.84082 0.015625)"/>
     <use xlink:href="#DejaVuSans-Oblique-66" transform="translate(2963.62793 0.015625)"/>
     <use xlink:href="#DejaVuSans-2248" transform="translate(3018.31543 0.015625)"/>
     <use xlink:href="#DejaVuSans-35" transform="translate(3121.586914 0.015625)"/>
     <use xlink:href="#DejaVuSansDisplay-2013" transform="translate(3185.209961 0.015625)"/>
     <use xlink:href="#DejaVuSans-31" transform="translate(3235.209961 0.015625)"/>
     <use xlink:href="#DejaVuSans-33" transform="translate(3298.833008 0.015625)"/>
     <use xlink:href="#DejaVuSans-25" transform="translate(3362.456055 0.015625)"/>
     <use xlink:href="#DejaVuSans-Oblique-20" transform="translate(3457.475586 0.015625)"/>
     <use xlink:href="#DejaVuSans-Oblique-28" transform="translate(3489.262695 0.015625)"/>
     <use xlink:href="#DejaVuSans-Oblique-53" transform="translate(3528.276367 0.015625)"/>
     <use xlink:href="#DejaVuSans-Oblique-65" transform="translate(3591.75293 0.015625)"/>
     <use xlink:href="#DejaVuSans-Oblique-63" transform="translate(3653.276367 0.015625)"/>
     <use xlink:href="#DejaVuSans-Oblique-74" transform="translate(3708.256836 0.015625)"/>
     <use xlink:href="#DejaVuSans-Oblique-69" transform="translate(3747.46582 0.015625)"/>
     <use xlink:href="#DejaVuSans-Oblique-6f" transform="translate(3775.249023 0.015625)"/>
     <use xlink:href="#DejaVuSans-Oblique-6e" transform="translate(3836.430664 0.015625)"/>
     <use xlink:href="#DejaVuSans-Oblique-20" transform="translate(3899.80957 0.015625)"/>
     <use xlink:href="#DejaVuSans-Oblique-33" transform="translate(3931.59668 0.015625)"/>
     <use xlink:href="#DejaVuSans-Oblique-2e" transform="translate(3995.219727 0.015625)"/>
     <use xlink:href="#DejaVuSans-Oblique-32" transform="translate(4024.381836 0.015625)"/>
     <use xlink:href="#DejaVuSans-Oblique-29" transform="translate(4088.004883 0.015625)"/>
     <use xlink:href="#DejaVuSans-Oblique-2e" transform="translate(4127.018555 0.015625)"/>
     <use xlink:href="#DejaVuSans-Oblique-20" transform="translate(4158.805664 0.015625)"/>
     <use xlink:href="#DejaVuSans-Oblique-50" transform="translate(4190.592773 0.015625)"/>
     <use xlink:href="#DejaVuSans-Oblique-68" transform="translate(4250.895508 0.015625)"/>
     <use xlink:href="#DejaVuSans-Oblique-79" transform="translate(4314.274414 0.015625)"/>
     <use xlink:href="#DejaVuSans-Oblique-73" transform="translate(4373.454102 0.015625)"/>
     <use xlink:href="#DejaVuSans-Oblique-69" transform="translate(4425.553711 0.015625)"/>
     <use xlink:href="#DejaVuSans-Oblique-63" transform="translate(4453.336914 0.015625)"/>
     <use xlink:href="#DejaVuSans-Oblique-61" transform="translate(4508.317383 0.015625)"/>
     <use xlink:href="#DejaVuSans-Oblique-6c" transform="translate(4569.59668 0.015625)"/>
     <use xlink:href="#DejaVuSans-Oblique-20" transform="translate(4597.379883 0.015625)"/>
     <use xlink:href="#DejaVuSans-Oblique-61" transform="translate(4629.166992 0.015625)"/>
     <use xlink:href="#DejaVuSans-30" transform="translate(4690.446289 -16.390625) scale(0.7)"/>
     <use xlink:href="#DejaVuSans-2f" transform="translate(4737.716797 0.015625)"/>
     <use xlink:href="#DejaVuSans-Oblique-61" transform="translate(4771.408203 0.015625)"/>
     <use xlink:href="#DejaVuSans-2a" transform="translate(4846.325195 -16.390625) scale(0.7)"/>
     <use xlink:href="#DejaVuSans-2248" transform="translate(4917.179688 0.015625)"/>
     <use xlink:href="#DejaVuSans-30" transform="translate(5020.451172 0.015625)"/>
     <use xlink:href="#DejaVuSans-2e" transform="translate(5084.074219 0.015625)"/>
     <use xlink:href="#DejaVuSans-30" transform="translate(5115.861328 0.015625)"/>
     <use xlink:href="#DejaVuSans-36" transform="translate(5179.484375 0.015625)"/>
     <use xlink:href="#DejaVuSansDisplay-2013" transform="translate(5243.107422 0.015625)"/>
     <use xlink:href="#DejaVuSans-30" transform="translate(5293.107422 0.015625)"/>
     <use xlink:href="#DejaVuSans-2e" transform="translate(5356.730469 0.015625)"/>
     <use xlink:href="#DejaVuSans-31" transform="translate(5388.517578 0.015625)"/>
     <use xlink:href="#DejaVuSans-35" transform="translate(5452.140625 0.015625)"/>
     <use xlink:href="#DejaVuSans-Oblique-2c" transform="translate(5515.763672 0.015625)"/>
     <use xlink:href="#DejaVuSans-Oblique-20" transform="translate(5547.550781 0.015625)"/>
     <use xlink:href="#DejaVuSans-Oblique-6d" transform="translate(5579.337891 0.015625)"/>
     <use xlink:href="#DejaVuSans-Oblique-75" transform="translate(5676.75 0.015625)"/>
     <use xlink:href="#DejaVuSans-Oblique-63" transform="translate(5740.128906 0.015625)"/>
     <use xlink:href="#DejaVuSans-Oblique-68" transform="translate(5795.109375 0.015625)"/>
     <use xlink:href="#DejaVuSans-Oblique-20" transform="translate(5858.488281 0.015625)"/>
     <use xlink:href="#DejaVuSans-Oblique-73" transform="translate(5890.275391 0.015625)"/>
     <use xlink:href="#DejaVuSans-Oblique-6d" transform="translate(5942.375 0.015625)"/>
     <use xlink:href="#DejaVuSans-Oblique-61" transform="translate(6039.787109 0.015625)"/>
     <use xlink:href="#DejaVuSans-Oblique-6c" transform="translate(6101.066406 0.015625)"/>
     <use xlink:href="#DejaVuSans-Oblique-6c" transform="translate(6128.849609 0.015625)"/>
     <use xlink:href="#DejaVuSans-Oblique-65" transform="translate(6156.632812 0.015625)"/>
     <use xlink:href="#DejaVuSans-Oblique-72" transform="translate(6218.15625 0.015625)"/>
     <use xlink:href="#DejaVuSans-Oblique-20" transform="translate(6259.269531 0.015625)"/>
     <use xlink:href="#DejaVuSans-Oblique-74" transform="translate(6291.056641 0.015625)"/>
     <use xlink:href="#DejaVuSans-Oblique-68" transform="translate(6330.265625 0.015625)"/>
     <use xlink:href="#DejaVuSans-Oblique-61" transform="translate(6393.644531 0.015625)"/>
     <use xlink:href="#DejaVuSans-Oblique-6e" transform="translate(6454.923828 0.015625)"/>
     <use xlink:href="#DejaVuSans-Oblique-20" transform="translate(6518.302734 0.015625)"/>
     <use xlink:href="#DejaVuSans-Oblique-69" transform="translate(6550.089844 0.015625)"/>
     <use xlink:href="#DejaVuSans-Oblique-6c" transform="translate(6577.873047 0.015625)"/>
     <use xlink:href="#DejaVuSans-Oblique-6c" transform="translate(6605.65625 0.015625)"/>
     <use xlink:href="#DejaVuSans-Oblique-75" transform="translate(6633.439453 0.015625)"/>
     <use xlink:href="#DejaVuSans-Oblique-73" transform="translate(6696.818359 0.015625)"/>
     <use xlink:href="#DejaVuSans-Oblique-74" transform="translate(6748.917969 0.015625)"/>
     <use xlink:href="#DejaVuSans-Oblique-72" transform="translate(6788.126953 0.015625)"/>
     <use xlink:href="#DejaVuSans-Oblique-61" transform="translate(6829.240234 0.015625)"/>
     <use xlink:href="#DejaVuSans-Oblique-74" transform="translate(6890.519531 0.015625)"/>
     <use xlink:href="#DejaVuSans-Oblique-65" transform="translate(6929.728516 0.015625)"/>
     <use xlink:href="#DejaVuSans-Oblique-64" transform="translate(6991.251953 0.015625)"/>
     <use xlink:href="#DejaVuSans-Oblique-20" transform="translate(7054.728516 0.015625)"/>
     <use xlink:href="#DejaVuSans-Oblique-62" transform="translate(7086.515625 0.015625)"/>
     <use xlink:href="#DejaVuSans-Oblique-6f" transform="translate(7149.992188 0.015625)"/>
     <use xlink:href="#DejaVuSans-Oblique-75" transform="translate(7211.173828 0.015625)"/>
     <use xlink:href="#DejaVuSans-Oblique-6e" transform="translate(7274.552734 0.015625)"/>
     <use xlink:href="#DejaVuSans-Oblique-63" transform="translate(7337.931641 0.015625)"/>
     <use xlink:href="#DejaVuSans-Oblique-65" transform="translate(7392.912109 0.015625)"/>
     <use xlink:href="#DejaVuSans-Oblique-20" transform="translate(7454.435547 0.015625)"/>
     <use xlink:href="#DejaVuSans-Oblique-6d" transform="translate(7486.222656 0.015625)"/>
     <use xlink:href="#DejaVuSans-Oblique-69" transform="translate(7583.634766 0.015625)"/>
     <use xlink:href="#DejaVuSans-Oblique-6e" transform="translate(7611.417969 0.015625)"/>
     <use xlink:href="#DejaVuSans-Oblique-69" transform="translate(7674.796875 0.015625)"/>
     <use xlink:href="#DejaVuSans-Oblique-6d" transform="translate(7702.580078 0.015625)"/>
     <use xlink:href="#DejaVuSans-Oblique-75" transform="translate(7799.992188 0.015625)"/>
     <use xlink:href="#DejaVuSans-Oblique-6d" transform="translate(7863.371094 0.015625)"/>
     <use xlink:href="#DejaVuSans-Oblique-2e" transform="translate(7960.783203 0.015625)"/>
    </g>
   </g>
   <g id="text_26">
    <!-- Fig. 1b — Cycle 3 detail.  Analytic equation of state: $w_\mathrm{EBC}(x) = -1 + \frac{1+x^2}{3(1-x^2)} \;\to\; -\frac{2}{3}$ for $x \to 0$ -->
    <g transform="translate(159.291441 18.435) scale(0.105 -0.105)">
     <defs>
      <path id="DejaVuSans-46" d="M 628 4666 
L 3309 4666 
L 3309 4134 
L 1259 4134 
L 1259 2759 
L 3109 2759 
L 3109 2228 
L 1259 2228 
L 1259 0 
L 628 0 
L 628 4666 
z
" transform="scale(0.015625)"/>
      <path id="DejaVuSans-67" d="M 2906 1791 
Q 2906 2416 2648 2759 
Q 2391 3103 1925 3103 
Q 1463 3103 1205 2759 
Q 947 2416 947 1791 
Q 947 1169 1205 825 
Q 1463 481 1925 481 
Q 2391 481 2648 825 
Q 2906 1169 2906 1791 
z
M 3481 434 
Q 3481 -459 3084 -895 
Q 2688 -1331 1869 -1331 
Q 1566 -1331 1297 -1286 
Q 1028 -1241 775 -1147 
L 775 -588 
Q 1028 -725 1275 -790 
Q 1522 -856 1778 -856 
Q 2344 -856 2625 -561 
Q 2906 -266 2906 331 
L 2906 616 
Q 2728 306 2450 153 
Q 2172 0 1784 0 
Q 1141 0 747 490 
Q 353 981 353 1791 
Q 353 2603 747 3093 
Q 1141 3584 1784 3584 
Q 2172 3584 2450 3431 
Q 2728 3278 2906 2969 
L 2906 3500 
L 3481 3500 
L 3481 434 
z
" transform="scale(0.015625)"/>
      <path id="DejaVuSansDisplay-2014" d="M 313 1978 
L 6088 1978 
L 6088 1528 
L 313 1528 
L 313 1978 
z
" transform="scale(0.015625)"/>
      <path id="DejaVuSans-71" d="M 947 1747 
Q 947 1113 1208 752 
Q 1469 391 1925 391 
Q 2381 391 2643 752 
Q 2906 1113 2906 1747 
Q 2906 2381 2643 2742 
Q 2381 3103 1925 3103 
Q 1469 3103 1208 2742 
Q 947 2381 947 1747 
z
M 2906 525 
Q 2725 213 2448 61 
Q 2172 -91 1784 -91 
Q 1150 -91 751 415 
Q 353 922 353 1747 
Q 353 2572 751 3078 
Q 1150 3584 1784 3584 
Q 2172 3584 2448 3432 
Q 2725 3281 2906 2969 
L 2906 3500 
L 3481 3500 
L 3481 -1331 
L 2906 -1331 
L 2906 525 
z
" transform="scale(0.015625)"/>
      <path id="DejaVuSans-45" d="M 628 4666 
L 3578 4666 
L 3578 4134 
L 1259 4134 
L 1259 2753 
L 3481 2753 
L 3481 2222 
L 1259 2222 
L 1259 531 
L 3634 531 
L 3634 0 
L 628 0 
L 628 4666 
z
" transform="scale(0.015625)"/>
      <path id="DejaVuSans-42" d="M 1259 2228 
L 1259 519 
L 2272 519 
Q 2781 519 3026 730 
Q 3272 941 3272 1375 
Q 3272 1813 3026 2020 
Q 2781 2228 2272 2228 
L 1259 2228 
z
M 1259 4147 
L 1259 2741 
L 2194 2741 
Q 2656 2741 2882 2914 
Q 3109 3088 3109 3444 
Q 3109 3797 2882 3972 
Q 2656 4147 2194 4147 
L 1259 4147 
z
M 628 4666 
L 2241 4666 
Q 2963 4666 3353 4366 
Q 3744 4066 3744 3513 
Q 3744 3084 3544 2831 
Q 3344 2578 2956 2516 
Q 3422 2416 3680 2098 
Q 3938 1781 3938 1306 
Q 3938 681 3513 340 
Q 3088 0 2303 0 
L 628 0 
L 628 4666 
z
" transform="scale(0.015625)"/>
      <path id="DejaVuSans-2b" d="M 2944 4013 
L 2944 2272 
L 4684 2272 
L 4684 1741 
L 2944 1741 
L 2944 0 
L 2419 0 
L 2419 1741 
L 678 1741 
L 678 2272 
L 2419 2272 
L 2419 4013 
L 2944 4013 
z
" transform="scale(0.015625)"/>
      <path id="DejaVuSans-2192" d="M 5050 2147 
L 5050 1866 
L 3822 638 
L 3447 1013 
L 4175 1741 
L 366 1741 
L 366 2272 
L 4175 2272 
L 3447 3000 
L 3822 3375 
L 5050 2147 
z
" transform="scale(0.015625)"/>
     </defs>
     <use xlink:href="#DejaVuSans-46" transform="translate(0 0.039062)"/>
     <use xlink:href="#DejaVuSans-69" transform="translate(57.519531 0.039062)"/>
     <use xlink:href="#DejaVuSans-67" transform="translate(85.302734 0.039062)"/>
     <use xlink:href="#DejaVuSans-2e" transform="translate(148.779297 0.039062)"/>
     <use xlink:href="#DejaVuSans-20" transform="translate(180.566406 0.039062)"/>
     <use xlink:href="#DejaVuSans-31" transform="translate(212.353516 0.039062)"/>
     <use xlink:href="#DejaVuSans-62" transform="translate(275.976562 0.039062)"/>
     <use xlink:href="#DejaVuSans-20" transform="translate(339.453125 0.039062)"/>
     <use xlink:href="#DejaVuSansDisplay-2014" transform="translate(371.240234 0.039062)"/>
     <use xlink:href="#DejaVuSans-20" transform="translate(471.240234 0.039062)"/>
     <use xlink:href="#DejaVuSans-43" transform="translate(503.027344 0.039062)"/>
     <use xlink:href="#DejaVuSans-79" transform="translate(572.851562 0.039062)"/>
     <use xlink:href="#DejaVuSans-63" transform="translate(632.03125 0.039062)"/>
     <use xlink:href="#DejaVuSans-6c" transform="translate(687.011719 0.039062)"/>
     <use xlink:href="#DejaVuSans-65" transform="translate(714.794922 0.039062)"/>
     <use xlink:href="#DejaVuSans-20" transform="translate(776.318359 0.039062)"/>
     <use xlink:href="#DejaVuSans-33" transform="translate(808.105469 0.039062)"/>
     <use xlink:href="#DejaVuSans-20" transform="translate(871.728516 0.039062)"/>
     <use xlink:href="#DejaVuSans-64" transform="translate(903.515625 0.039062)"/>
     <use xlink:href="#DejaVuSans-65" transform="translate(966.992188 0.039062)"/>
     <use xlink:href="#DejaVuSans-74" transform="translate(1028.515625 0.039062)"/>
     <use xlink:href="#DejaVuSans-61" transform="translate(1067.724609 0.039062)"/>
     <use xlink:href="#DejaVuSans-69" transform="translate(1129.003906 0.039062)"/>
     <use xlink:href="#DejaVuSans-6c" transform="translate(1156.787109 0.039062)"/>
     <use xlink:href="#DejaVuSans-2e" transform="translate(1184.570312 0.039062)"/>
     <use xlink:href="#DejaVuSans-20" transform="translate(1216.357422 0.039062)"/>
     <use xlink:href="#DejaVuSans-20" transform="translate(1248.144531 0.039062)"/>
     <use xlink:href="#DejaVuSans-41" transform="translate(1279.931641 0.039062)"/>
     <use xlink:href="#DejaVuSans-6e" transform="translate(1348.339844 0.039062)"/>
     <use xlink:href="#DejaVuSans-61" transform="translate(1411.71875 0.039062)"/>
     <use xlink:href="#DejaVuSans-6c" transform="translate(1472.998047 0.039062)"/>
     <use xlink:href="#DejaVuSans-79" transform="translate(1500.78125 0.039062)"/>
     <use xlink:href="#DejaVuSans-74" transform="translate(1559.960938 0.039062)"/>
     <use xlink:href="#DejaVuSans-69" transform="translate(1599.169922 0.039062)"/>
     <use xlink:href="#DejaVuSans-63" transform="translate(1626.953125 0.039062)"/>
     <use xlink:href="#DejaVuSans-20" transform="translate(1681.933594 0.039062)"/>
     <use xlink:href="#DejaVuSans-65" transform="translate(1713.720703 0.039062)"/>
     <use xlink:href="#DejaVuSans-71" transform="translate(1775.244141 0.039062)"/>
     <use xlink:href="#DejaVuSans-75" transform="translate(1838.720703 0.039062)"/>
     <use xlink:href="#DejaVuSans-61" transform="translate(1902.099609 0.039062)"/>
     <use xlink:href="#DejaVuSans-74" transform="translate(1963.378906 0.039062)"/>
     <use xlink:href="#DejaVuSans-69" transform="translate(2002.587891 0.039062)"/>
     <use xlink:href="#DejaVuSans-6f" transform="translate(2030.371094 0.039062)"/>
     <use xlink:href="#DejaVuSans-6e" transform="translate(2091.552734 0.039062)"/>
     <use xlink:href="#DejaVuSans-20" transform="translate(2154.931641 0.039062)"/>
     <use xlink:href="#DejaVuSans-6f" transform="translate(2186.71875 0.039062)"/>
     <use xlink:href="#DejaVuSans-66" transform="translate(2247.900391 0.039062)"/>
     <use xlink:href="#DejaVuSans-20" transform="translate(2283.105469 0.039062)"/>
     <use xlink:href="#DejaVuSans-73" transform="translate(2314.892578 0.039062)"/>
     <use xlink:href="#DejaVuSans-74" transform="translate(2366.992188 0.039062)"/>
     <use xlink:href="#DejaVuSans-61" transform="translate(2406.201172 0.039062)"/>
     <use xlink:href="#DejaVuSans-74" transform="translate(2467.480469 0.039062)"/>
     <use xlink:href="#DejaVuSans-65" transform="translate(2506.689453 0.039062)"/>
     <use xlink:href="#DejaVuSans-3a" transform="translate(2568.212891 0.039062)"/>
     <use xlink:href="#DejaVuSans-20" transform="translate(2601.904297 0.039062)"/>
     <use xlink:href="#DejaVuSans-Oblique-77" transform="translate(2633.691406 0.039062)"/>
     <use xlink:href="#DejaVuSans-45" transform="translate(2715.478516 -16.367188) scale(0.7)"/>
     <use xlink:href="#DejaVuSans-42" transform="translate(2759.707031 -16.367188) scale(0.7)"/>
     <use xlink:href="#DejaVuSans-43" transform="translate(2807.729492 -16.367188) scale(0.7)"/>
     <use xlink:href="#DejaVuSans-28" transform="translate(2859.34082 0.039062)"/>
     <use xlink:href="#DejaVuSans-Oblique-78" transform="translate(2898.354492 0.039062)"/>
     <use xlink:href="#DejaVuSans-29" transform="translate(2957.53418 0.039062)"/>
     <use xlink:href="#DejaVuSans-3d" transform="translate(3016.030273 0.039062)"/>
     <use xlink:href="#DejaVuSans-2212" transform="translate(3119.301758 0.039062)"/>
     <use xlink:href="#DejaVuSans-31" transform="translate(3203.09082 0.039062)"/>
     <use xlink:href="#DejaVuSans-2b" transform="translate(3286.196289 0.039062)"/>
     <use xlink:href="#DejaVuSans-31" transform="translate(3439.467773 43.835938) scale(0.7)"/>
     <use xlink:href="#DejaVuSans-2b" transform="translate(3497.641602 43.835938) scale(0.7)"/>
     <use xlink:href="#DejaVuSans-Oblique-78" transform="translate(3569.931641 43.835938) scale(0.7)"/>
     <use xlink:href="#DejaVuSans-32" transform="translate(3614.483724 70.632812) scale(0.49)"/>
     <use xlink:href="#DejaVuSans-33" transform="translate(3389.467773 -50.578125) scale(0.7)"/>
     <use xlink:href="#DejaVuSans-28" transform="translate(3434.003906 -50.578125) scale(0.7)"/>
     <use xlink:href="#DejaVuSans-31" transform="translate(3461.313477 -50.578125) scale(0.7)"/>
     <use xlink:href="#DejaVuSans-2212" transform="translate(3519.487305 -50.578125) scale(0.7)"/>
     <use xlink:href="#DejaVuSans-Oblique-78" transform="translate(3591.777344 -50.578125) scale(0.7)"/>
     <use xlink:href="#DejaVuSans-32" transform="translate(3636.329427 -23.78125) scale(0.49)"/>
     <use xlink:href="#DejaVuSans-29" transform="translate(3669.418783 -50.578125) scale(0.7)"/>
     <use xlink:href="#DejaVuSans-2192" transform="translate(3755.76991 0.039062)"/>
     <use xlink:href="#DejaVuSans-2212" transform="translate(3905.582952 0.039062)"/>
     <use xlink:href="#DejaVuSans-32" transform="translate(4008.854437 43.835938) scale(0.7)"/>
     <use xlink:href="#DejaVuSans-33" transform="translate(4008.854437 -39.367188) scale(0.7)"/>
     <use xlink:href="#DejaVuSans-20" transform="translate(4065.89057 0.039062)"/>
     <use xlink:href="#DejaVuSans-66" transform="translate(4097.677679 0.039062)"/>
     <use xlink:href="#DejaVuSans-6f" transform="translate(4132.882757 0.039062)"/>
     <use xlink:href="#DejaVuSans-72" transform="translate(4194.064398 0.039062)"/>
     <use xlink:href="#DejaVuSans-20" transform="translate(4235.177679 0.039062)"/>
     <use xlink:href="#DejaVuSans-Oblique-78" transform="translate(4266.964788 0.039062)"/>
     <use xlink:href="#DejaVuSans-2192" transform="translate(4345.626898 0.039062)"/>
     <use xlink:href="#DejaVuSans-30" transform="translate(4448.898382 0.039062)"/>
     <path d="M 3389.467773 18.835938 
L 3389.467773 25.085938 
L 3696.728353 25.085938 
L 3696.728353 18.835938 
L 3389.467773 18.835938 
z
"/>
     <path d="M 4008.854437 18.835938 
L 4008.854437 25.085938 
L 4053.39057 25.085938 
L 4053.39057 18.835938 
L 4008.854437 18.835938 
z
"/>
    </g>
   </g>
   <g id="line2d_39">
    <path d="M 222.126131 307.46815 
L 222.126131 24.735 
" clip-path="url(#p5f2176c299)" style="fill: none; stroke-dasharray: 10.88,2.72,1.7,2.72; stroke-dashoffset: 0; stroke: #c96b10; stroke-width: 1.7"/>
   </g>
   <g id="PathCollection_1">
    <defs>
     <path id="m7ca517489e" d="M 0 4.242641 
C 1.125161 4.242641 2.204391 3.795609 3 3 
C 3.795609 2.204391 4.242641 1.125161 4.242641 0 
C 4.242641 -1.125161 3.795609 -2.204391 3 -3 
C 2.204391 -3.795609 1.125161 -4.242641 0 -4.242641 
C -1.125161 -4.242641 -2.204391 -3.795609 -3 -3 
C -3.795609 -2.204391 -4.242641 -1.125161 -4.242641 0 
C -4.242641 1.125161 -3.795609 2.204391 -3 3 
C -2.204391 3.795609 -1.125161 4.242641 0 4.242641 
z
" style="stroke: #1d8a3b"/>
    </defs>
    <g clip-path="url(#p5f2176c299)">
     <use xlink:href="#m7ca517489e" x="198.38552" y="231.858618" style="fill: #1d8a3b; stroke: #1d8a3b"/>
    </g>
   </g>
   <g id="PathCollection_2">
    <g clip-path="url(#p5f2176c299)">
     <use xlink:href="#m7ca517489e" x="594.062361" y="231.813548" style="fill: #1d8a3b; stroke: #1d8a3b"/>
    </g>
   </g>
   <g id="PathCollection_3">
    <defs>
     <path id="m7fec9b1374" d="M 0 4.242641 
C 1.125161 4.242641 2.204391 3.795609 3 3 
C 3.795609 2.204391 4.242641 1.125161 4.242641 0 
C 4.242641 -1.125161 3.795609 -2.204391 3 -3 
C 2.204391 -3.795609 1.125161 -4.242641 0 -4.242641 
C -1.125161 -4.242641 -2.204391 -3.795609 -3 -3 
C -3.795609 -2.204391 -4.242641 -1.125161 -4.242641 0 
C -4.242641 1.125161 -3.795609 2.204391 -3 3 
C -2.204391 3.795609 -1.125161 4.242641 0 4.242641 
z
" style="stroke: #c0392b"/>
    </defs>
    <g clip-path="url(#p5f2176c299)">
     <use xlink:href="#m7fec9b1374" x="396.061378" y="75.346123" style="fill: #c0392b; stroke: #c0392b"/>
    </g>
   </g>
   <g id="PathCollection_4">
    <defs>
     <path id="mc903c44801" d="M 0 4.242641 
C 1.125161 4.242641 2.204391 3.795609 3 3 
C 3.795609 2.204391 4.242641 1.125161 4.242641 0 
C 4.242641 -1.125161 3.795609 -2.204391 3 -3 
C 2.204391 -3.795609 1.125161 -4.242641 0 -4.242641 
C -1.125161 -4.242641 -2.204391 -3.795609 -3 -3 
C -3.795609 -2.204391 -4.242641 -1.125161 -4.242641 0 
C -4.242641 1.125161 -3.795609 2.204391 -3 3 
C -2.204391 3.795609 -1.125161 4.242641 0 4.242641 
z
" style="stroke: #c96b10"/>
    </defs>
    <g clip-path="url(#p5f2176c299)">
     <use xlink:href="#mc903c44801" x="222.126131" y="222.999757" style="fill: #c96b10; stroke: #c96b10"/>
    </g>
   </g>
  </g>
 </g>
 <defs>
  <clipPath id="p5f2176c299">
   <rect x="52.079375" y="24.735" width="688.289131" height="282.73315"/>
  </clipPath>
 </defs>
</svg>
